<svg width="112" height="65" viewBox="0 0 112 65" fill="none" xmlns="http://www.w3.org/2000/svg">
<path fill-rule="evenodd" clip-rule="evenodd" d="M24.4607 16.983C24.5052 16.9485 24.5599 16.9298 24.6162 16.9298H27.7131C27.7704 16.9298 27.8259 16.9492 27.8708 16.9847C27.9156 17.0202 27.9472 17.0699 27.9603 17.1256L28.3565 18.8087C28.7567 18.9414 29.1405 19.1088 29.5049 19.3077L30.2017 18.7988L30.5013 19.2089L29.9801 19.5895C30.2965 19.7962 30.5952 20.0273 30.8732 20.2808L31.5153 19.6527C31.5627 19.6063 31.6265 19.5803 31.6928 19.5803C31.7592 19.5803 31.8229 19.6063 31.8704 19.6527L32.8753 20.6358C32.9162 20.6758 32.9424 20.7285 32.9496 20.7852C32.9568 20.842 32.9447 20.8995 32.9151 20.9485L32.2623 22.0299C32.5266 22.5017 32.7371 23.0073 32.8861 23.5386L33.8729 23.8726L33.71 24.3537L32.596 23.9766C32.556 23.9631 32.5201 23.9398 32.4914 23.9089C32.4627 23.878 32.4421 23.8405 32.4316 23.7997C32.2804 23.2153 32.0489 22.663 31.7494 22.1548C31.7261 22.1153 31.7139 22.0703 31.7142 22.0245C31.7144 21.9787 31.727 21.9338 31.7507 21.8946L32.3764 20.8582L31.6928 20.1895L30.2187 21.6315C31.1775 22.7963 31.5655 23.6813 31.6658 25.1572H34.1445C34.2119 25.1572 34.2765 25.1839 34.3241 25.2315C34.3717 25.2792 34.3985 25.3437 34.3985 25.4111V26.8668C34.3985 26.9247 34.3787 26.9808 34.3425 27.0258C34.3063 27.0709 34.2558 27.1023 34.1993 27.1148L32.8485 27.4134C32.6846 27.9567 32.4565 28.4724 32.1718 28.9508L31.7354 28.691C32.0232 28.2075 32.2492 27.6836 32.4028 27.1299C32.4151 27.0854 32.4393 27.0452 32.4728 27.0135C32.5062 26.9818 32.5477 26.9598 32.5927 26.9498L33.8906 26.6629V25.665H31.4265C31.3612 25.665 31.2984 25.6398 31.2511 25.5947C31.2039 25.5495 31.1759 25.4879 31.1729 25.4226C31.1025 23.8751 30.8085 23.1455 29.8549 21.9873L28.9042 22.9173C28.8571 22.9634 28.794 22.9893 28.7282 22.9897C28.6623 22.9901 28.5989 22.965 28.5513 22.9195C27.9272 22.3236 27.0646 21.9556 26.1273 21.9556H26.1273C24.2023 21.9556 22.6488 23.5005 22.6488 25.4111C22.6488 27.3216 24.2023 28.8665 26.1273 28.8665H26.1273C27.0646 28.8665 27.9272 28.4985 28.5513 27.9027C28.5994 27.8567 28.6637 27.8315 28.7303 27.8325C28.7969 27.8334 28.8604 27.8605 28.9072 27.9078L29.856 28.8677C30.5012 28.0803 30.6665 27.8409 30.9488 26.9875L31.431 27.1471C31.1327 28.0486 30.899 28.3927 30.2146 29.2305L31.9109 30.9467C31.9345 30.9705 31.9531 30.9988 31.9657 31.0299C31.9783 31.061 31.9846 31.0943 31.9843 31.1279C31.9839 31.1614 31.9769 31.1946 31.9637 31.2254C31.9504 31.2562 31.9312 31.2841 31.9071 31.3075L30.8839 32.3001C30.8428 32.34 30.7893 32.3648 30.7323 32.3705C30.6753 32.3762 30.618 32.3624 30.5698 32.3314L29.3933 31.5746C29.0576 31.75 28.7059 31.899 28.3408 32.019L27.899 33.6713C27.8845 33.7253 27.8526 33.773 27.8083 33.8071C27.7639 33.8411 27.7096 33.8596 27.6537 33.8596H24.5568C24.4994 33.8596 24.4437 33.8402 24.3988 33.8045C24.3539 33.7688 24.3224 33.7189 24.3094 33.6631L23.928 32.0194C23.5954 31.9101 23.274 31.7768 22.9656 31.6213L21.4141 32.5417C21.3659 32.5702 21.3098 32.5821 21.2542 32.5754C21.1987 32.5687 21.1469 32.5439 21.1069 32.5048L18.9 30.3456C18.8587 30.3052 18.8325 30.2519 18.8255 30.1946C18.8186 30.1372 18.8314 30.0792 18.8619 30.0301L19.8344 28.464C19.7014 28.1936 19.5856 27.9135 19.4882 27.6248L17.7134 27.1663C17.6589 27.1522 17.6106 27.1204 17.5761 27.0759C17.5417 27.0314 17.523 26.9767 17.5229 26.9204V23.8427C17.523 23.7851 17.5425 23.7293 17.5784 23.6843C17.6144 23.6393 17.6645 23.6078 17.7206 23.5951L19.4909 23.193C19.5788 22.934 19.6816 22.6818 19.7984 22.4375L18.8483 20.88C18.8189 20.8318 18.8064 20.7751 18.8128 20.719C18.8192 20.6629 18.8441 20.6105 18.8836 20.5701L21.0428 18.3638C21.0827 18.323 21.1353 18.2968 21.192 18.2895C21.2487 18.2823 21.3062 18.2944 21.3552 18.3238L22.8882 19.2463C23.2228 19.072 23.573 18.9239 23.9366 18.8043L24.3703 17.1204C24.3844 17.0659 24.4162 17.0175 24.4607 16.983ZM27.512 17.4377H26.4147L26.395 18.7053V19.9692C26.4663 19.9751 26.5349 19.9805 26.601 19.9857C26.8871 20.0081 27.1284 20.0271 27.355 20.0676C27.6925 20.1281 28.0169 20.2458 28.4622 20.493L28.2157 20.937C27.8002 20.7063 27.5497 20.6184 27.2655 20.5676C27.0771 20.5338 26.8466 20.5154 26.5649 20.4928C26.5094 20.4884 26.452 20.4838 26.3925 20.4789L26.3835 21.4568C27.267 21.5124 28.0815 21.8529 28.7182 22.3888L30.5093 20.6367C30.1697 20.3298 29.7977 20.0577 29.3983 19.8272V19.8272C28.9816 19.5867 28.5356 19.3909 28.0669 19.2465C28.0245 19.2335 27.9863 19.2096 27.9561 19.1773C27.9258 19.1449 27.9046 19.1052 27.8944 19.062L27.512 17.4377ZM28.7152 28.436C28.0788 28.9704 27.2655 29.3099 26.3833 29.3653L26.3927 30.4871C26.6847 30.4643 27.155 30.4181 27.4676 30.331H27.4677C27.9199 30.205 28.3934 29.967 28.3934 29.967L28.6233 30.4198C28.6233 30.4198 28.1254 30.6749 27.604 30.8202H27.6039C27.2034 30.9318 26.6914 30.9786 26.395 30.9986V32.1179H26.1415L26.3949 32.124C26.3834 32.6034 26.3709 33.1212 26.3653 33.3517H27.4587L27.8854 31.7561C27.8966 31.7145 27.9181 31.6764 27.948 31.6454C27.9779 31.6144 28.0152 31.5915 28.0564 31.5789C28.4866 31.4471 28.8977 31.2722 29.2846 31.0592C29.3247 31.0371 29.37 31.0263 29.4158 31.0278C29.4615 31.0294 29.506 31.0433 29.5445 31.068L30.675 31.7952L31.3696 31.1214L28.7152 28.436Z" fill="#1D1D1D"/>
<path d="M29.407 24.3988L29.8885 24.2372C29.8885 24.2372 30.1213 24.8897 30.1274 25.408C30.134 25.9583 29.8889 26.6538 29.8889 26.6538L29.4066 26.4946C29.4066 26.4946 29.6241 25.789 29.6196 25.4141C29.6154 25.061 29.407 24.3988 29.407 24.3988Z" fill="#1D1D1D"/>
<path d="M30.6324 18.017C30.2896 18.017 30.0062 18.2968 30.0062 18.641C30.0062 18.9853 30.2896 19.2651 30.6324 19.2651C30.9752 19.2651 31.2586 18.9853 31.2586 18.641C31.2586 18.2968 30.9752 18.017 30.6324 18.017ZM30.6324 18.3055C30.82 18.3055 30.97 18.4536 30.97 18.641C30.97 18.8285 30.82 18.9766 30.6324 18.9766C30.4447 18.9766 30.2948 18.8285 30.2948 18.641C30.2948 18.4536 30.4447 18.3055 30.6324 18.3055Z" fill="#1D1D1D"/>
<path d="M34.2977 23.4509C33.8876 23.4509 33.5497 23.785 33.5497 24.1961C33.5497 24.6073 33.8876 24.9413 34.2977 24.9413C34.7079 24.9413 35.0458 24.6072 35.0458 24.1961C35.0458 23.785 34.7079 23.4509 34.2977 23.4509ZM34.2977 23.7395C34.5528 23.7395 34.7572 23.9418 34.7572 24.1961C34.7572 24.4505 34.5528 24.6528 34.2977 24.6528C34.0428 24.6528 33.8382 24.4504 33.8382 24.1961C33.8382 23.9418 34.0428 23.7395 34.2977 23.7395Z" fill="#1D1D1D"/>
<path d="M31.749 28.5216C31.3389 28.5216 31.001 28.8557 31.001 29.2668C31.001 29.678 31.3389 30.012 31.749 30.012C32.1592 30.012 32.4971 29.6779 32.4971 29.2668C32.4971 28.8557 32.1592 28.5216 31.749 28.5216ZM31.749 28.8102C32.0041 28.8102 32.2085 29.0125 32.2085 29.2668C32.2085 29.5212 32.0041 29.7234 31.749 29.7234C31.494 29.7234 31.2895 29.5211 31.2895 29.2668C31.2895 29.0126 31.4941 28.8102 31.749 28.8102Z" fill="#1D1D1D"/>
<path d="M28.7383 20.2836C28.3559 20.2836 28.0405 20.5953 28.0405 20.9788C28.0405 21.3623 28.3559 21.6741 28.7383 21.6741C29.1207 21.6741 29.4361 21.3623 29.4361 20.9788C29.4361 20.5953 29.1207 20.2836 28.7383 20.2836ZM28.7383 20.5721C28.9656 20.5721 29.1475 20.7521 29.1475 20.9788C29.1475 21.2055 28.9656 21.3855 28.7383 21.3855C28.511 21.3855 28.3291 21.2055 28.3291 20.9788C28.3291 20.7521 28.511 20.5721 28.7383 20.5721Z" fill="#1D1D1D"/>
<path d="M29.5568 23.0944C29.1744 23.0944 28.859 23.4061 28.859 23.7896C28.859 24.1731 29.1744 24.4848 29.5568 24.4848C29.9392 24.4848 30.2545 24.1731 30.2545 23.7896C30.2545 23.4061 29.9392 23.0944 29.5568 23.0944ZM29.5568 23.3829C29.784 23.3829 29.9659 23.5628 29.9659 23.7896C29.9659 24.0164 29.784 24.1963 29.5568 24.1963C29.3295 24.1963 29.1476 24.0163 29.1476 23.7896C29.1476 23.5629 29.3295 23.3829 29.5568 23.3829Z" fill="#1D1D1D"/>
<path d="M29.5568 26.3315C29.1744 26.3315 28.859 26.6433 28.859 27.0268C28.859 27.4103 29.1744 27.722 29.5568 27.722C29.9392 27.722 30.2545 27.4103 30.2545 27.0268C30.2545 26.6433 29.9392 26.3315 29.5568 26.3315ZM29.5568 26.6201C29.784 26.6201 29.9659 26.8 29.9659 27.0268C29.9659 27.2535 29.784 27.4335 29.5568 27.4335C29.3295 27.4335 29.1476 27.2535 29.1476 27.0268C29.1476 26.8 29.3295 26.6201 29.5568 26.6201Z" fill="#1D1D1D"/>
<path d="M31.2893 25.9987C30.948 25.9987 30.6659 26.2774 30.6659 26.6201C30.6659 26.9628 30.948 27.2415 31.2893 27.2415C31.6307 27.2415 31.9128 26.9628 31.9128 26.6201C31.9128 26.2774 31.6307 25.9987 31.2893 25.9987ZM31.2893 26.2872C31.4756 26.2872 31.6242 26.4341 31.6242 26.6201C31.6242 26.806 31.4756 26.9529 31.2893 26.9529C31.1031 26.9529 30.9545 26.806 30.9545 26.6201C30.9545 26.4341 31.1031 26.2872 31.2893 26.2872Z" fill="#1D1D1D"/>
<path d="M28.8975 29.313C28.5561 29.313 28.274 29.5916 28.274 29.9344C28.274 30.2771 28.5561 30.5557 28.8975 30.5557C29.2389 30.5557 29.521 30.2771 29.521 29.9344C29.521 29.5916 29.2389 29.313 28.8975 29.313ZM28.8975 29.6015C29.0837 29.6015 29.2324 29.7483 29.2324 29.9344C29.2324 30.1204 29.0837 30.2672 28.8975 30.2672C28.7113 30.2672 28.5626 30.1204 28.5626 29.9344C28.5626 29.7483 28.7113 29.6015 28.8975 29.6015Z" fill="#1D1D1D"/>
<path d="M39.9996 17.5891C40.9737 17.1669 42.0783 16.9488 43.3073 16.9298C43.309 16.9302 43.3108 16.9307 43.3125 16.9311C43.3695 16.9303 43.4265 16.9298 43.484 16.9298C44.81 16.9298 45.9698 17.1504 46.9569 17.6002C47.941 18.0487 48.7135 18.6901 49.2538 19.5172C49.8003 20.3403 50.0753 21.3072 50.0807 22.3938C50.0808 22.4273 50.0744 22.4604 50.0617 22.4914C50.049 22.5223 50.0303 22.5505 50.0067 22.5742C49.9832 22.5979 49.9551 22.6167 49.9242 22.6296C49.8933 22.6424 49.8602 22.649 49.8268 22.649H45.6505C45.5867 22.649 45.5252 22.625 45.4783 22.5817C45.4314 22.5384 45.4025 22.479 45.3974 22.4154C45.3599 21.9481 45.1968 21.6204 44.8996 21.3734L44.8988 21.3727L44.8982 21.3722C44.6179 21.1359 44.1555 20.9951 43.484 20.9951C43.4278 20.9951 43.373 20.996 43.3197 20.9978C43.3182 20.9975 43.3167 20.9971 43.3152 20.9967C42.9644 21.0088 42.6807 21.0601 42.4672 21.1411C42.4664 21.1414 42.4656 21.1417 42.4648 21.142C42.2149 21.234 42.052 21.3517 41.9525 21.4848C41.9182 21.5307 41.8694 21.5636 41.814 21.5782C41.7587 21.5929 41.7 21.5884 41.6475 21.5655L37.8916 19.9254C37.4512 20.6017 37.2336 21.3743 37.2381 22.2676C37.2382 22.2682 37.2382 22.2687 37.2382 22.2692L37.2381 22.27C37.2331 23.4781 37.5106 24.2002 37.9721 24.6486L37.6182 25.0129C37.0326 24.444 36.7252 23.5568 36.7303 22.2691C36.7251 21.2092 37.0139 20.2626 37.5949 19.4598C37.6289 19.4128 37.6779 19.3789 37.7338 19.3637C37.7897 19.3484 37.8491 19.3527 37.9022 19.3759L41.6829 21.0268C41.8434 20.8732 42.0485 20.7542 42.2883 20.6658C42.512 20.5811 42.7688 20.5295 43.0573 20.5044V19.2338C42.223 19.3111 41.3003 19.6382 40.5324 20.0557C40.4889 20.0793 40.4395 20.0897 40.3902 20.0857C40.3409 20.0816 40.2938 20.0632 40.2548 20.0327L39.0041 19.0557L39.3167 18.6555L40.4395 19.5325C41.2396 19.1177 42.1676 18.7959 43.0573 18.7237V17.4469C42.1227 17.4844 41.2772 17.6445 40.5198 17.9276C40.5498 17.9635 40.5731 17.9913 40.5946 18.0171C40.6266 18.0553 40.6549 18.0892 40.696 18.1383L40.3063 18.4641C40.1499 18.277 39.9058 17.985 39.9058 17.985C39.8805 17.9547 39.8626 17.9189 39.8535 17.8804C39.8444 17.842 39.8445 17.802 39.8536 17.7635C39.8627 17.7251 39.8806 17.6893 39.906 17.6591C39.9313 17.6288 39.9634 17.6048 39.9996 17.5891Z" fill="#1D1D1D"/>
<path d="M39.853 25.081C39.0401 24.2193 38.4571 22.8682 38.5001 21.6861L39.0076 21.7046C38.9689 22.7685 39.6044 24.1681 40.3812 24.8914C40.4059 24.9143 40.4257 24.9419 40.4396 24.9725C40.4534 25.0032 40.4611 25.0363 40.462 25.0699C40.463 25.1036 40.4573 25.1371 40.4452 25.1685C40.4331 25.1999 40.4149 25.2286 40.3916 25.2529L39.7587 25.9136C39.9626 26.0068 40.178 26.0929 40.4037 26.1726C40.535 26.0151 40.8162 25.6749 41.0199 25.3885V25.3885C41.1557 25.1976 41.3038 24.9655 41.4093 24.7978C40.7583 24.2741 40.4176 23.8757 40.2616 23.2801L40.7529 23.1515C40.887 23.6636 41.1366 23.9417 41.8334 24.4869H43.0573V23.3976H43.0577C43.0579 23.3592 43.0669 23.3213 43.0838 23.2869C43.1008 23.2524 43.1253 23.2223 43.1556 23.1987C43.1859 23.1751 43.2212 23.1587 43.2587 23.1507C43.2963 23.1427 43.3351 23.1433 43.3724 23.1525C43.4927 23.1823 43.6201 23.211 43.7546 23.2385C43.7553 23.2386 43.756 23.2388 43.7567 23.2389L45.0749 23.5197C45.9799 23.7101 46.7606 23.9624 47.4176 24.2808C48.0722 24.598 48.6157 24.9754 49.0432 25.4166C49.4689 25.8509 49.7855 26.3457 49.9864 26.8944C50.1909 27.439 50.295 28.0309 50.3004 28.6653C50.3004 28.6664 50.3004 28.6675 50.3004 28.6687C50.295 29.7611 50.0167 30.7089 49.4598 31.4837C48.9052 32.2554 48.1112 32.8397 47.101 33.2338L47.1009 33.2339C46.0951 33.6282 44.8994 33.8207 43.5154 33.8207C43.4454 33.8207 43.3763 33.8202 43.3078 33.8192C43.306 33.8188 43.3042 33.8183 43.3025 33.8178L43.239 33.8168C41.98 33.7986 41.587 33.708 41.2387 33.5972L41.3926 33.1133C41.6999 33.211 41.9861 33.2821 43.0573 33.3048V32.0368C43.0089 32.0365 42.9615 32.0363 42.9151 32.0361C42.4782 32.0343 42.1239 32.0328 41.8115 31.9751C41.4055 31.9001 41.0516 31.713 40.6599 31.347L41.0067 30.976C41.355 31.3015 41.584 31.4166 41.9038 31.4757C42.152 31.5216 42.494 31.5241 42.9364 31.5274C42.9759 31.5277 43.0162 31.528 43.0573 31.5283V30.2463C42.6364 30.2139 42.255 30.1283 41.9165 29.9841L41.9157 29.9837L41.9154 29.9836C41.4873 29.7989 41.1713 29.549 40.8823 29.1404C40.6536 28.8169 40.5083 28.336 40.5083 28.336L40.9909 28.1776C40.9909 28.1776 41.1594 28.6526 41.297 28.8471C41.5464 29.1999 41.7491 29.3586 42.116 29.517C42.4489 29.6588 42.8482 29.7395 43.3181 29.7522C43.3197 29.7526 43.3214 29.7531 43.3231 29.7536C43.3659 29.7548 43.4091 29.7554 43.4525 29.7554C43.8975 29.7554 44.2591 29.6997 44.5352 29.5992C44.817 29.4964 45.0113 29.3618 45.1382 29.2032C45.2669 29.0424 45.3281 28.8745 45.3334 28.669C45.3287 28.4795 45.2724 28.3331 45.1521 28.1936C45.1504 28.1916 45.1487 28.1896 45.1471 28.1876C45.0353 28.0497 44.8204 27.8988 44.4934 27.763C44.4924 27.7626 44.4914 27.7621 44.4904 27.7617C44.1897 27.6324 43.7757 27.5052 43.2547 27.3862C43.1986 27.3734 43.1485 27.342 43.1127 27.297C43.0768 27.252 43.0573 27.1962 43.0573 27.1387V24.9948H41.8855C41.7981 25.1354 41.6112 25.4334 41.4337 25.6829V25.6829C41.2736 25.908 41.0763 26.1547 40.9153 26.3513C41.1318 26.428 41.3458 26.5014 41.578 26.5515L41.4709 27.0479C41.1758 26.9843 40.923 26.8939 40.6827 26.8081C40.5896 26.7748 40.4983 26.7421 40.4071 26.712C39.9784 26.5703 39.5816 26.4048 39.2169 26.215C39.1819 26.1968 39.1517 26.1707 39.1286 26.1388C39.1054 26.1069 39.09 26.07 39.0836 26.0311C39.0772 25.9922 39.0799 25.9524 39.0916 25.9147C39.1032 25.8771 39.1235 25.8426 39.1507 25.8141L39.853 25.081Z" fill="#1D1D1D"/>
<path d="M41.3609 22.5765L41.8049 22.3298C41.8345 22.3832 42.1596 22.7332 42.2887 22.8237L41.9969 23.2394C41.7703 23.0804 41.4989 22.8248 41.3609 22.5765Z" fill="#1D1D1D"/>
<path d="M36.4785 27.5266C36.5094 27.5138 36.5425 27.5072 36.576 27.5072H38.6484C38.6823 27.5072 38.7159 27.514 38.7471 27.5272C38.7784 27.5404 38.8066 27.5597 38.8303 27.584C38.854 27.6083 38.8725 27.6371 38.8849 27.6687C38.8972 27.7003 38.9031 27.734 38.9022 27.7679C38.9022 27.7679 38.8928 28.7664 39.0649 29.2677C39.2073 29.6825 39.6799 30.3562 39.6799 30.3562C39.7136 30.4029 39.7305 30.4597 39.7277 30.5172C39.725 30.5747 39.7027 30.6296 39.6646 30.6729L38.5486 31.9393C38.6021 31.9978 38.6598 32.059 38.7054 32.1007C38.9645 32.3372 39.5816 32.6394 39.5816 32.6394L39.3666 33.0994C39.3666 33.0994 38.7406 32.8206 38.363 32.4758C38.2 32.3269 38.0152 32.1035 38.0152 32.1035C37.9761 32.057 37.9549 31.9979 37.9556 31.9371C37.9563 31.8763 37.9788 31.8178 38.019 31.7722L39.152 30.4865C38.9958 30.258 38.7202 29.8277 38.5846 29.4326C38.4242 28.9656 38.3951 28.3559 38.3922 28.0151H36.8357C36.8642 29.1827 37.0527 29.9693 37.3732 30.451L36.9503 30.7323C36.5149 30.0777 36.3274 29.1225 36.322 27.7622C36.3219 27.7287 36.3284 27.6956 36.3411 27.6647C36.3538 27.6338 36.3725 27.6056 36.396 27.582C36.4196 27.5583 36.4477 27.5395 36.4785 27.5266Z" fill="#1D1D1D"/>
<path d="M38.0233 24.5853C37.7276 24.5853 37.4825 24.8273 37.4825 25.1245C37.4825 25.4218 37.7276 25.6637 38.0233 25.6637C38.319 25.6637 38.5641 25.4219 38.5641 25.1245C38.5641 24.8272 38.319 24.5853 38.0233 24.5853ZM38.0233 24.8739C38.1637 24.8739 38.2755 24.984 38.2755 25.1245C38.2755 25.2651 38.1637 25.3752 38.0233 25.3752C37.8827 25.3752 37.7711 25.2652 37.7711 25.1245C37.7711 24.9839 37.8827 24.8739 38.0233 24.8739Z" fill="#1D1D1D"/>
<path d="M41.8979 26.3561C41.6022 26.3561 41.3572 26.598 41.3572 26.8953C41.3572 27.1926 41.6022 27.4345 41.8979 27.4345C42.1937 27.4345 42.4387 27.1926 42.4387 26.8953C42.4387 26.598 42.1937 26.3561 41.8979 26.3561ZM41.8979 26.6446C42.0385 26.6446 42.1501 26.7547 42.1501 26.8953C42.1501 27.0359 42.0385 27.1459 41.8979 27.1459C41.7574 27.1459 41.6457 27.0359 41.6457 26.8953C41.6457 26.7547 41.7574 26.6446 41.8979 26.6446Z" fill="#1D1D1D"/>
<path d="M40.6903 27.4865C40.3945 27.4865 40.1495 27.7284 40.1495 28.0256C40.1495 28.3229 40.3946 28.5648 40.6903 28.5648C40.986 28.5648 41.231 28.3229 41.231 28.0256C41.231 27.7284 40.986 27.4865 40.6903 27.4865ZM40.6903 27.775C40.8308 27.775 40.9425 27.885 40.9425 28.0256C40.9425 28.1663 40.8309 28.2763 40.6903 28.2763C40.5497 28.2763 40.4381 28.1663 40.4381 28.0256C40.4381 27.885 40.5497 27.775 40.6903 27.775Z" fill="#1D1D1D"/>
<path d="M40.6095 30.4375C40.3138 30.4375 40.0687 30.6793 40.0687 30.9766C40.0687 31.274 40.3138 31.5159 40.6095 31.5159C40.9052 31.5159 41.1502 31.2739 41.1502 30.9766C41.1502 30.6793 40.9052 30.4375 40.6095 30.4375ZM40.6095 30.7261C40.7501 30.7261 40.8617 30.836 40.8617 30.9766C40.8617 31.1172 40.75 31.2273 40.6095 31.2273C40.4691 31.2273 40.3573 31.1172 40.3573 30.9766C40.3573 30.8361 40.469 30.7261 40.6095 30.7261Z" fill="#1D1D1D"/>
<path d="M37.3087 30.297C37.013 30.297 36.7679 30.5389 36.7679 30.8361C36.7679 31.1334 37.0129 31.3754 37.3087 31.3754C37.6045 31.3754 37.8494 31.1334 37.8494 30.8361C37.8494 30.5389 37.6044 30.297 37.3087 30.297ZM37.3087 30.5856C37.4493 30.5856 37.5609 30.6955 37.5609 30.8361C37.5609 30.9768 37.4492 31.0868 37.3087 31.0868C37.1682 31.0868 37.0565 30.9768 37.0565 30.8361C37.0565 30.6955 37.1681 30.5856 37.3087 30.5856Z" fill="#1D1D1D"/>
<path d="M39.7258 32.5321C39.4724 32.5321 39.2617 32.7399 39.2617 32.9951C39.2617 33.2503 39.4724 33.4581 39.7258 33.4581C39.9793 33.4581 40.1901 33.2503 40.1901 32.9951C40.1901 32.7399 39.9793 32.5321 39.7258 32.5321ZM39.7258 32.8207C39.8242 32.8207 39.9015 32.8966 39.9015 32.9951C39.9015 33.0937 39.8242 33.1696 39.7258 33.1696C39.6277 33.1696 39.5503 33.0937 39.5503 32.9951C39.5503 32.8966 39.6277 32.8207 39.7258 32.8207Z" fill="#1D1D1D"/>
<path d="M41.0377 32.7614C40.7842 32.7614 40.5736 32.9692 40.5736 33.2244C40.5736 33.4797 40.7843 33.6875 41.0377 33.6875C41.2911 33.6875 41.5018 33.4797 41.5018 33.2244C41.5018 32.9692 41.2912 32.7614 41.0377 32.7614ZM41.0377 33.0499C41.1358 33.0499 41.2133 33.1259 41.2133 33.2244C41.2133 33.3231 41.1359 33.399 41.0377 33.399C40.9395 33.399 40.8622 33.3231 40.8622 33.2244C40.8622 33.1259 40.9396 33.0499 41.0377 33.0499Z" fill="#1D1D1D"/>
<path d="M38.8553 17.8658C38.4728 17.8658 38.1575 18.1776 38.1575 18.5611C38.1575 18.9446 38.4728 19.2563 38.8553 19.2563C39.2377 19.2563 39.5531 18.9446 39.5531 18.5611C39.5531 18.1776 39.2377 17.8658 38.8553 17.8658ZM38.8553 18.1544C39.0826 18.1544 39.2645 18.3343 39.2645 18.5611C39.2645 18.7878 39.0826 18.9678 38.8553 18.9678C38.6279 18.9678 38.446 18.7878 38.446 18.5611C38.446 18.3343 38.6279 18.1544 38.8553 18.1544Z" fill="#1D1D1D"/>
<path d="M40.6657 18.0872C40.3618 18.0872 40.1102 18.3356 40.1102 18.6409C40.1102 18.9462 40.3618 19.1946 40.6657 19.1946C40.9694 19.1946 41.2209 18.9462 41.2209 18.6409C41.2209 18.3356 40.9694 18.0872 40.6657 18.0872ZM40.6657 18.3757C40.8141 18.3757 40.9324 18.4923 40.9324 18.6409C40.9324 18.7895 40.8141 18.9061 40.6657 18.9061C40.517 18.9061 40.3988 18.7895 40.3988 18.6409C40.3988 18.4923 40.517 18.3757 40.6657 18.3757Z" fill="#1D1D1D"/>
<path d="M41.4659 21.7035C41.1983 21.7035 40.9761 21.9228 40.9761 22.1922C40.9761 22.4616 41.1983 22.6808 41.4659 22.6808C41.7336 22.6808 41.9559 22.4616 41.9559 22.1922C41.9559 21.9228 41.7336 21.7035 41.4659 21.7035ZM41.4659 21.992C41.5784 21.992 41.6673 22.0795 41.6673 22.1922C41.6673 22.3049 41.5784 22.3923 41.4659 22.3923C41.3536 22.3923 41.2646 22.3049 41.2646 22.1922C41.2646 22.0795 41.3536 21.992 41.4659 21.992Z" fill="#1D1D1D"/>
<path d="M42.3517 22.734C42.084 22.734 41.8617 22.9533 41.8617 23.2227C41.8617 23.4921 42.084 23.7114 42.3517 23.7114C42.6193 23.7114 42.8415 23.4921 42.8415 23.2227C42.8415 22.9533 42.6193 22.734 42.3517 22.734ZM42.3517 23.0226C42.464 23.0226 42.553 23.11 42.553 23.2227C42.553 23.3354 42.464 23.4228 42.3517 23.4228C42.2391 23.4228 42.1503 23.3354 42.1503 23.2227C42.1503 23.11 42.2391 23.0226 42.3517 23.0226Z" fill="#1D1D1D"/>
<path d="M40.3987 22.3229C40.1029 22.3229 39.8579 22.5648 39.8579 22.8621C39.8579 23.1594 40.1029 23.4013 40.3987 23.4013C40.6944 23.4013 40.9394 23.1594 40.9394 22.8621C40.9394 22.5648 40.6944 22.3229 40.3987 22.3229ZM40.3987 22.6114C40.5392 22.6114 40.6509 22.7215 40.6509 22.8621C40.6509 23.0027 40.5392 23.1127 40.3987 23.1127C40.2581 23.1127 40.1465 23.0027 40.1465 22.8621C40.1465 22.7215 40.2581 22.6114 40.3987 22.6114Z" fill="#1D1D1D"/>
<path d="M38.7682 20.9022C38.4724 20.9022 38.2274 21.1441 38.2274 21.4414C38.2274 21.7387 38.4724 21.9806 38.7682 21.9806C39.0639 21.9806 39.3089 21.7387 39.3089 21.4414C39.3089 21.1441 39.0639 20.9022 38.7682 20.9022ZM38.7682 21.1908C38.9087 21.1908 39.0204 21.3008 39.0204 21.4414C39.0204 21.582 38.9087 21.6921 38.7682 21.6921C38.6276 21.6921 38.516 21.582 38.516 21.4414C38.516 21.3008 38.6276 21.1908 38.7682 21.1908Z" fill="#1D1D1D"/>
<path d="M51.9443 17.0042C51.9919 16.9566 52.0565 16.9298 52.1238 16.9298H63.7427C63.8101 16.9298 63.8747 16.9566 63.9223 17.0042C63.9699 17.0518 63.9967 17.1164 63.9967 17.1837V18.051H63.4888V17.4377H56.8638V17.7971H62.1885C62.2558 17.7971 62.3203 17.8238 62.3679 17.8714C62.4155 17.919 62.4423 17.9835 62.4424 18.0508L62.4431 18.9257L61.9352 18.9261L61.9347 18.3049H56.8638V18.6743H60.7328C60.8002 18.6743 60.8648 18.7011 60.9124 18.7487C60.96 18.7963 60.9868 18.8609 60.9868 18.9283V19.593H60.4789V19.1822H56.8638V19.8881H58.4809V20.396H56.8638V20.8859H63.4888V20.4186H63.9967V21.1398C63.9967 21.2071 63.9699 21.2717 63.9223 21.3194C63.8747 21.367 63.8101 21.3937 63.7427 21.3937H56.8638V23.3446H63.0396C63.1069 23.3446 63.1715 23.3714 63.2191 23.419C63.2668 23.4666 63.2935 23.5312 63.2935 23.5986V26.5371H62.7857V23.8525H56.8638V24.3797H59.969V24.8875H56.8638V25.3507H58.8366V25.8586H56.8638V26.2834L60.056 26.2864L60.0555 26.7942L56.8638 26.7912V27.3568H61.4043L61.4068 25.2771L61.9147 25.2777L61.9119 27.6111C61.9118 27.6784 61.885 27.7429 61.8374 27.7904C61.7898 27.838 61.7253 27.8647 61.658 27.8647H56.8638V33.6057C56.8638 33.673 56.837 33.7376 56.7894 33.7852C56.7418 33.8328 56.6772 33.8596 56.6098 33.8596H52.1238C52.0565 33.8596 51.9919 33.8328 51.9443 33.7852C51.8966 33.7376 51.8699 33.673 51.8699 33.6057V17.1837C51.8699 17.1164 51.8966 17.0518 51.9443 17.0042Z" fill="#1D1D1D"/>
<path d="M58.887 19.6016C58.5917 19.6016 58.347 19.8432 58.347 20.14C58.347 20.4369 58.5917 20.6785 58.887 20.6785C59.1824 20.6785 59.4271 20.4369 59.4271 20.14C59.4271 19.8432 59.1824 19.6016 58.887 19.6016ZM58.887 19.8901C59.0272 19.8901 59.1385 19.9998 59.1385 20.14C59.1385 20.2802 59.0272 20.3899 58.887 20.3899C58.7469 20.3899 58.6356 20.2802 58.6356 20.14C58.6356 19.9998 58.7469 19.8901 58.887 19.8901Z" fill="#1D1D1D"/>
<path d="M60.7141 19.328C60.3997 19.328 60.1395 19.585 60.1395 19.9008C60.1395 20.2167 60.3997 20.4737 60.7141 20.4737C61.0285 20.4737 61.2887 20.2167 61.2887 19.9008C61.2887 19.585 61.0285 19.328 60.7141 19.328ZM60.7141 19.6166C60.8734 19.6166 61.0001 19.7416 61.0001 19.9008C61.0001 20.06 60.8734 20.1851 60.7141 20.1851C60.5548 20.1851 60.4281 20.06 60.4281 19.9008C60.4281 19.7416 60.5548 19.6166 60.7141 19.6166Z" fill="#1D1D1D"/>
<path d="M62.1717 18.6898C61.8379 18.6898 61.562 18.9623 61.562 19.2975C61.562 19.6326 61.8379 19.9051 62.1717 19.9051C62.5054 19.9051 62.7813 19.6326 62.7813 19.2975C62.7813 18.9623 62.5054 18.6898 62.1717 18.6898ZM62.1717 18.9784C62.3502 18.9784 62.4928 19.1191 62.4928 19.2975C62.4928 19.4758 62.3502 19.6166 62.1717 19.6166C61.9931 19.6166 61.8506 19.4758 61.8506 19.2975C61.8506 19.1191 61.9931 18.9784 62.1717 18.9784Z" fill="#1D1D1D"/>
<path d="M63.7424 17.7657C63.489 17.7657 63.2783 17.9736 63.2783 18.2288C63.2783 18.484 63.489 18.6919 63.7424 18.6919C63.9959 18.6919 64.2067 18.4841 64.2067 18.2288C64.2067 17.9735 63.9959 17.7657 63.7424 17.7657ZM63.7424 18.0543C63.8406 18.0543 63.9181 18.1303 63.9181 18.2288C63.9181 18.3273 63.8406 18.4033 63.7424 18.4033C63.6443 18.4033 63.5669 18.3274 63.5669 18.2288C63.5669 18.1302 63.6443 18.0543 63.7424 18.0543Z" fill="#1D1D1D"/>
<path d="M63.7424 19.6771C63.489 19.6771 63.2783 19.8849 63.2783 20.1402C63.2783 20.3954 63.489 20.6032 63.7424 20.6032C63.9959 20.6032 64.2067 20.3955 64.2067 20.1402C64.2067 19.8849 63.9959 19.6771 63.7424 19.6771ZM63.7424 19.9657C63.8406 19.9657 63.9181 20.0417 63.9181 20.1402C63.9181 20.2387 63.8406 20.3147 63.7424 20.3147C63.6443 20.3147 63.5669 20.2388 63.5669 20.1402C63.5669 20.0416 63.6443 19.9657 63.7424 19.9657Z" fill="#1D1D1D"/>
<path d="M63.0363 26.2671C62.7026 26.2671 62.4266 26.5396 62.4266 26.8748C62.4266 27.2099 62.7026 27.4824 63.0363 27.4824C63.3701 27.4824 63.646 27.2099 63.646 26.8748C63.646 26.5396 63.3701 26.2671 63.0363 26.2671ZM63.0363 26.5556C63.215 26.5556 63.3574 26.6963 63.3574 26.8748C63.3574 27.0532 63.215 27.1939 63.0363 27.1939C62.8578 27.1939 62.7152 27.0531 62.7152 26.8748C62.7152 26.6964 62.8578 26.5556 63.0363 26.5556Z" fill="#1D1D1D"/>
<path d="M61.6509 24.3188C61.3172 24.3188 61.0413 24.5914 61.0413 24.9265C61.0413 25.2617 61.3172 25.5342 61.6509 25.5342C61.9846 25.5342 62.2606 25.2617 62.2606 24.9265C62.2606 24.5914 61.9846 24.3188 61.6509 24.3188ZM61.6509 24.6074C61.8295 24.6074 61.972 24.7481 61.972 24.9265C61.972 25.1049 61.8295 25.2456 61.6509 25.2456C61.4724 25.2456 61.3298 25.1049 61.3298 24.9265C61.3298 24.7481 61.4724 24.6074 61.6509 24.6074Z" fill="#1D1D1D"/>
<path d="M60.2523 24.1444C59.9989 24.1444 59.7882 24.3523 59.7882 24.6075C59.7882 24.8627 59.9989 25.0705 60.2523 25.0705C60.5057 25.0705 60.7164 24.8627 60.7164 24.6075C60.7164 24.3523 60.5057 24.1444 60.2523 24.1444ZM60.2523 24.433C60.3505 24.433 60.4279 24.5089 60.4279 24.6075C60.4279 24.7061 60.3505 24.782 60.2523 24.782C60.1542 24.782 60.0768 24.7061 60.0768 24.6075C60.0768 24.5089 60.1542 24.433 60.2523 24.433Z" fill="#1D1D1D"/>
<path d="M59.0627 25.1494C58.8093 25.1494 58.5986 25.3572 58.5986 25.6125C58.5986 25.8677 58.8093 26.0755 59.0627 26.0755C59.3162 26.0755 59.5269 25.8677 59.5269 25.6125C59.5269 25.3572 59.3162 25.1494 59.0627 25.1494ZM59.0627 25.438C59.1609 25.438 59.2383 25.5139 59.2383 25.6125C59.2383 25.711 59.1609 25.787 59.0627 25.787C58.9646 25.787 58.8872 25.711 58.8872 25.6125C58.8872 25.5139 58.9646 25.438 59.0627 25.438Z" fill="#1D1D1D"/>
<path d="M60.3237 26.0925C60.0702 26.0925 59.8595 26.3004 59.8595 26.5556C59.8595 26.8108 60.0702 27.0187 60.3237 27.0187C60.5771 27.0187 60.7878 26.8108 60.7878 26.5556C60.7878 26.3004 60.5771 26.0925 60.3237 26.0925ZM60.3237 26.3811C60.4219 26.3811 60.4993 26.457 60.4993 26.5556C60.4993 26.6542 60.4219 26.7301 60.3237 26.7301C60.2254 26.7301 60.1481 26.6542 60.1481 26.5556C60.1481 26.457 60.2254 26.3811 60.3237 26.3811Z" fill="#1D1D1D"/>
<path d="M67.2569 17.424L66.1739 17.424C66.1065 17.424 66.0419 17.4507 65.9943 17.4984C65.9467 17.546 65.9199 17.6106 65.9199 17.6779V26.4757V33.5469C65.9199 33.6142 65.9467 33.6788 65.9943 33.7264C66.0419 33.774 66.1065 33.8008 66.1739 33.8008H70.6599C70.7272 33.8008 70.7918 33.774 70.8394 33.7264C70.887 33.6788 70.9138 33.6142 70.9138 33.5469V26.4757V17.6779C70.9138 17.6106 70.887 17.546 70.8394 17.4984C70.7918 17.4507 70.7272 17.424 70.6599 17.424L70.072 17.424V17.9318H70.406V26.2217L69.611 26.2217V24.1677H69.1032V26.2217H68.3083V21.6442H68.8845V21.1363H68.0543C67.987 21.1363 67.9224 21.1631 67.8748 21.2107C67.8272 21.2583 67.8004 21.3229 67.8004 21.3903V26.2217H67.3437V19.8487L68.1825 19.848L68.1821 19.3401L67.0895 19.341C67.0222 19.3411 66.9577 19.3679 66.9101 19.4155C66.8626 19.4631 66.8358 19.5276 66.8358 19.5949V26.2217L66.4278 26.2217V17.9318H67.2569L67.2569 17.424Z" fill="#1D1D1D"/>
<path d="M67.65 17.0947C67.3353 17.0947 67.0649 17.3474 67.0649 17.6701C67.0649 17.9927 67.3353 18.2454 67.65 18.2454C67.9648 18.2454 68.2352 17.9927 68.2352 17.6701C68.2352 17.3474 67.9648 17.0947 67.65 17.0947ZM67.65 17.3833C67.8131 17.3833 67.9466 17.5075 67.9466 17.6701C67.9466 17.8326 67.8131 17.9568 67.65 17.9568C67.4871 17.9568 67.3535 17.8326 67.3535 17.6701C67.3535 17.5075 67.4871 17.3833 67.65 17.3833Z" fill="#1D1D1D"/>
<path d="M68.5022 19.0482C68.2016 19.0482 67.9526 19.294 67.9526 19.5961C67.9526 19.8982 68.2016 20.144 68.5022 20.144C68.8027 20.144 69.0517 19.8983 69.0517 19.5961C69.0517 19.294 68.8027 19.0482 68.5022 19.0482ZM68.5022 19.3368C68.6474 19.3368 68.7631 19.4508 68.7631 19.5961C68.7631 19.7415 68.6474 19.8555 68.5022 19.8555C68.3568 19.8555 68.2412 19.7416 68.2412 19.5961C68.2412 19.4507 68.3568 19.3368 68.5022 19.3368Z" fill="#1D1D1D"/>
<path d="M69.3462 20.7789C69.0222 20.7789 68.7543 21.0436 68.7543 21.369C68.7543 21.6944 69.0222 21.959 69.3462 21.959C69.6702 21.959 69.9381 21.6943 69.9381 21.369C69.9381 21.0436 69.6701 20.7789 69.3462 20.7789ZM69.3462 21.0675C69.515 21.0675 69.6495 21.2003 69.6495 21.369C69.6495 21.5376 69.515 21.6704 69.3462 21.6704C69.1774 21.6704 69.0428 21.5376 69.0428 21.369C69.0428 21.2003 69.1774 21.0675 69.3462 21.0675Z" fill="#1D1D1D"/>
<path d="M69.3462 23.1447C69.0222 23.1447 68.7543 23.4093 68.7543 23.7347C68.7543 24.0601 69.0222 24.3247 69.3462 24.3247C69.6701 24.3247 69.9381 24.06 69.9381 23.7347C69.9381 23.4093 69.6701 23.1447 69.3462 23.1447ZM69.3462 23.4332C69.515 23.4332 69.6495 23.566 69.6495 23.7347C69.6495 23.9034 69.515 24.0361 69.3462 24.0361C69.1774 24.0361 69.0428 23.9033 69.0428 23.7347C69.0428 23.566 69.1774 23.4332 69.3462 23.4332Z" fill="#1D1D1D"/>
<path d="M69.6308 17.0942C69.3161 17.0942 69.045 17.3465 69.045 17.6696C69.045 17.9927 69.3161 18.2449 69.6308 18.2449C69.9455 18.2449 70.2165 17.9926 70.2165 17.6696C70.2165 17.3465 69.9455 17.0942 69.6308 17.0942ZM69.6308 17.3828C69.794 17.3828 69.9279 17.5069 69.9279 17.6696C69.9279 17.8322 69.794 17.9563 69.6308 17.9563C69.4677 17.9563 69.3336 17.8322 69.3336 17.6696C69.3336 17.507 69.4677 17.3828 69.6308 17.3828Z" fill="#1D1D1D"/>
<path d="M73.1964 17.7089V17.201H77.5474C77.6147 17.2011 77.6793 17.2278 77.7269 17.2754C77.7745 17.3231 77.8013 17.3876 77.8013 17.455V33.6055C77.8013 33.6729 77.7745 33.7374 77.7269 33.7851C77.6793 33.8327 77.6147 33.8594 77.5474 33.8595H72.9521C72.8847 33.8594 72.8201 33.8327 72.7725 33.7851C72.7249 33.7374 72.6981 33.6729 72.6981 33.6055V18.4245C72.6981 18.3572 72.7249 18.2926 72.7725 18.245C72.8201 18.1974 72.8847 18.1706 72.9521 18.1706H75.186C75.2534 18.1706 75.318 18.1974 75.3656 18.245C75.4132 18.2926 75.44 18.3572 75.44 18.4245V19.9239H74.9321V18.6785H73.206V25.3248L73.803 25.3247V19.8041H74.3109V25.3247H74.9321V21.7536H75.44V25.3247L76.2827 25.3248V18.7457H76.7905V25.3248H77.2934V17.7089H73.1964Z" fill="#1D1D1D"/>
<path d="M75.1779 19.7163C74.9244 19.7163 74.7137 19.9242 74.7137 20.1794C74.7137 20.4346 74.9244 20.6424 75.1779 20.6424C75.4313 20.6424 75.642 20.4346 75.642 20.1794C75.642 19.9242 75.4313 19.7163 75.1779 19.7163ZM75.1779 20.0049C75.276 20.0049 75.3534 20.0808 75.3534 20.1794C75.3534 20.2779 75.276 20.3539 75.1779 20.3539C75.0797 20.3539 75.0023 20.2779 75.0023 20.1794C75.0023 20.0808 75.0797 20.0049 75.1779 20.0049Z" fill="#1D1D1D"/>
<path d="M75.1779 20.9867C74.9244 20.9867 74.7137 21.1945 74.7137 21.4498C74.7137 21.705 74.9244 21.9128 75.1779 21.9128C75.4313 21.9128 75.642 21.705 75.642 21.4498C75.642 21.1945 75.4313 20.9867 75.1779 20.9867ZM75.1779 21.2753C75.276 21.2753 75.3534 21.3512 75.3534 21.4498C75.3534 21.5483 75.276 21.6243 75.1779 21.6243C75.0797 21.6243 75.0023 21.5483 75.0023 21.4498C75.0023 21.3512 75.0797 21.2753 75.1779 21.2753Z" fill="#1D1D1D"/>
<path d="M76.5345 18.0249C76.2811 18.0249 76.0704 18.2327 76.0704 18.488C76.0704 18.7432 76.2811 18.951 76.5345 18.951C76.788 18.951 76.9987 18.7432 76.9987 18.488C76.9987 18.2327 76.788 18.0249 76.5345 18.0249ZM76.5345 18.3135C76.6327 18.3135 76.7101 18.3894 76.7101 18.488C76.7101 18.5865 76.6327 18.6625 76.5345 18.6625C76.4364 18.6625 76.359 18.5865 76.359 18.488C76.359 18.3894 76.4364 18.3135 76.5345 18.3135Z" fill="#1D1D1D"/>
<path d="M72.9123 16.9921C72.6589 16.9921 72.4482 17.1999 72.4482 17.4551C72.4482 17.7104 72.6589 17.9182 72.9123 17.9182C73.1658 17.9182 73.3766 17.7104 73.3766 17.4551C73.3766 17.1999 73.1658 16.9921 72.9123 16.9921ZM72.9123 17.2806C73.0107 17.2806 73.088 17.3566 73.088 17.4551C73.088 17.5537 73.0107 17.6296 72.9123 17.6296C72.8142 17.6296 72.7368 17.5537 72.7368 17.4551C72.7368 17.3566 72.8142 17.2806 72.9123 17.2806Z" fill="#1D1D1D"/>
<path d="M74.0721 19.0233C73.8187 19.0233 73.608 19.2311 73.608 19.4864C73.608 19.7416 73.8187 19.9494 74.0721 19.9494C74.3256 19.9494 74.5364 19.7416 74.5364 19.4864C74.5364 19.2311 74.3256 19.0233 74.0721 19.0233ZM74.0721 19.3119C74.1705 19.3119 74.2478 19.3878 74.2478 19.4864C74.2478 19.5849 74.1705 19.6609 74.0721 19.6609C73.974 19.6609 73.8966 19.5849 73.8966 19.4864C73.8966 19.3878 73.974 19.3119 74.0721 19.3119Z" fill="#1D1D1D"/>
<path fill-rule="evenodd" clip-rule="evenodd" d="M79.6795 16.8396C79.7271 16.792 79.7917 16.7653 79.859 16.7653H84.2998V16.7748C84.3115 16.7708 84.3234 16.7676 84.3355 16.7653H86.963C88.2112 16.7653 89.3166 16.9915 90.2696 17.4513C91.2223 17.9108 91.9742 18.5813 92.5066 19.45C93.0415 20.3229 93.305 21.3661 93.305 22.5602C93.305 23.7654 93.033 24.8034 92.4792 25.6519C92.0168 26.3672 91.3897 26.9361 90.6125 27.3522L93.8186 33.2017C93.8397 33.2404 93.8505 33.2839 93.8498 33.328C93.849 33.3721 93.8368 33.4152 93.8143 33.4532C93.7919 33.4911 93.7599 33.5225 93.7216 33.5444C93.6833 33.5662 93.64 33.5777 93.5959 33.5777H88.7573C88.7114 33.5777 88.6663 33.5652 88.6269 33.5416C88.5875 33.5181 88.5552 33.4842 88.5335 33.4438L85.7197 28.1959H84.3355C84.2681 28.1959 84.2036 28.1691 84.1559 28.1215C84.1083 28.0739 84.0816 28.0093 84.0816 27.942V27.1391H80.113V28.2246H81.5114C81.5788 28.2246 81.6434 28.2514 81.691 28.299C81.7386 28.3466 81.7654 28.4112 81.7654 28.4785V31.7939H82.7553V32.3018H81.5114C81.4441 32.3018 81.3795 32.275 81.3319 32.2274C81.2843 32.1798 81.2575 32.1152 81.2575 32.0479V28.7325H80.113V30.8049H79.6051V26.8851C79.6051 26.8178 79.6319 26.7532 79.6795 26.7056C79.7271 26.658 79.7917 26.6312 79.859 26.6312H84.0816V19.0405H83.1594L83.1581 20.8143L82.6502 20.814L82.6515 19.0405H81.7459V21.9604H81.238V18.7866C81.238 18.7192 81.2648 18.6547 81.3124 18.607C81.36 18.5594 81.4246 18.5327 81.4919 18.5327H84.0816V17.2731H80.113V25.0658H82.6502V24.6685H83.1581V25.3197C83.158 25.3871 83.1313 25.4516 83.0837 25.4993C83.0361 25.5469 82.9715 25.5736 82.9041 25.5736H79.859C79.7917 25.5736 79.7271 25.5469 79.6795 25.4993C79.6319 25.4516 79.6051 25.3871 79.6051 25.3197V17.0192C79.6051 16.9518 79.6319 16.8873 79.6795 16.8396ZM85.9056 20.8079H84.5894V24.2543L85.8755 24.2823C85.8774 24.2823 86.3532 24.2903 86.647 24.2824C86.9017 24.2754 87.0251 24.2675 87.2456 24.1934C87.5133 24.1034 87.5784 24.0567 87.75 23.8335C87.9754 23.5404 88.1509 22.9574 88.1509 22.5602C88.1509 22.1299 88.0587 21.8065 87.892 21.5667C87.891 21.5652 87.89 21.5638 87.889 21.5623C87.7566 21.3631 87.5811 21.2087 87.3481 21.0909C87.0326 20.9444 86.8815 20.8991 86.5786 20.8562C86.5775 20.8561 86.5763 20.8559 86.5751 20.8557C86.3721 20.8241 86.1488 20.8079 85.9056 20.8079Z" fill="#1D1D1D"/>
<path d="M82.9451 30.7977L82.9504 29.3841L83.4583 29.386L83.4539 30.5447H84.2998C84.3672 30.5447 84.4317 30.5715 84.4794 30.6191C84.527 30.6667 84.5537 30.7313 84.5537 30.7986V33.3238C84.5537 33.3911 84.527 33.4557 84.4794 33.5033C84.4317 33.5509 84.3672 33.5777 84.2998 33.5777H80.2606V33.0698H84.0459V31.0526H83.199C83.1656 31.0526 83.1325 31.046 83.1017 31.0331C83.0708 31.0203 83.0427 31.0015 83.0192 30.9779C82.9956 30.9542 82.9769 30.9261 82.9642 30.8952C82.9515 30.8642 82.945 30.8311 82.9451 30.7977Z" fill="#1D1D1D"/>
<path d="M82.9152 20.5967C82.6034 20.5967 82.3455 20.8515 82.3455 21.1647C82.3455 21.4779 82.6034 21.7327 82.9152 21.7327C83.227 21.7327 83.4849 21.4779 83.4849 21.1647C83.4849 20.8515 83.227 20.5967 82.9152 20.5967ZM82.9152 20.8852C83.0718 20.8852 83.1964 21.0082 83.1964 21.1647C83.1964 21.3213 83.0718 21.4442 82.9152 21.4442C82.7586 21.4442 82.634 21.3213 82.634 21.1647C82.634 21.0082 82.7586 20.8852 82.9152 20.8852Z" fill="#1D1D1D"/>
<path d="M81.4821 21.7338C81.1703 21.7338 80.9124 21.9886 80.9124 22.3018C80.9124 22.615 81.1703 22.8698 81.4821 22.8698C81.7938 22.8698 82.0518 22.615 82.0518 22.3018C82.0518 21.9886 81.7938 21.7338 81.4821 21.7338ZM81.4821 22.0223C81.6386 22.0223 81.7633 22.1453 81.7633 22.3018C81.7633 22.4583 81.6386 22.5813 81.4821 22.5813C81.3255 22.5813 81.2009 22.4583 81.2009 22.3018C81.2009 22.1452 81.3255 22.0223 81.4821 22.0223Z" fill="#1D1D1D"/>
<path d="M82.9152 23.7805C82.6034 23.7805 82.3455 24.0354 82.3455 24.3485C82.3455 24.6617 82.6034 24.9166 82.9152 24.9166C83.227 24.9166 83.4849 24.6617 83.4849 24.3485C83.4849 24.0354 83.227 23.7805 82.9152 23.7805ZM82.9152 24.0691C83.0718 24.0691 83.1964 24.192 83.1964 24.3485C83.1964 24.5051 83.0718 24.628 82.9152 24.628C82.7586 24.628 82.634 24.5051 82.634 24.3485C82.634 24.192 82.7586 24.0691 82.9152 24.0691Z" fill="#1D1D1D"/>
<path d="M83.1967 28.4368C82.8849 28.4368 82.6268 28.6916 82.6268 29.0048C82.6268 29.318 82.8849 29.5729 83.1967 29.5729C83.5084 29.5729 83.7664 29.318 83.7664 29.0048C83.7664 28.6916 83.5084 28.4368 83.1967 28.4368ZM83.1967 28.7253C83.3531 28.7253 83.4778 28.8484 83.4778 29.0048C83.4778 29.1613 83.3531 29.2843 83.1967 29.2843C83.0401 29.2843 82.9154 29.1613 82.9154 29.0048C82.9154 28.8484 83.0401 28.7253 83.1967 28.7253Z" fill="#1D1D1D"/>
<path d="M83.064 31.4889C82.7523 31.4889 82.4943 31.7436 82.4943 32.0569C82.4943 32.3702 82.7523 32.625 83.064 32.625C83.3758 32.625 83.6337 32.3701 83.6337 32.0569C83.6337 31.7437 83.3757 31.4889 83.064 31.4889ZM83.064 31.7774C83.2206 31.7774 83.3452 31.9003 83.3452 32.0569C83.3452 32.2135 83.2206 32.3364 83.064 32.3364C82.9075 32.3364 82.7828 32.2134 82.7828 32.0569C82.7828 31.9004 82.9075 31.7774 83.064 31.7774Z" fill="#1D1D1D"/>
<path d="M79.859 30.5869C79.5473 30.5869 79.2893 30.8417 79.2893 31.1549C79.2893 31.4682 79.5473 31.723 79.859 31.723C80.1708 31.723 80.4288 31.4681 80.4288 31.1549C80.4288 30.8418 80.1708 30.5869 79.859 30.5869ZM79.859 30.8755C80.0156 30.8755 80.1402 30.9985 80.1402 31.1549C80.1402 31.3115 80.0156 31.4345 79.859 31.4345C79.7026 31.4345 79.5779 31.3114 79.5779 31.1549C79.5779 30.9986 79.7026 30.8755 79.859 30.8755Z" fill="#1D1D1D"/>
<path d="M79.859 32.756C79.5474 32.756 79.2893 33.0107 79.2893 33.324C79.2893 33.6372 79.5474 33.892 79.859 33.892C80.1708 33.892 80.4288 33.6372 80.4288 33.324C80.4288 33.0108 80.1708 32.756 79.859 32.756ZM79.859 33.0445C80.0157 33.0445 80.1402 33.1674 80.1402 33.324C80.1402 33.4806 80.0157 33.6034 79.859 33.6034C79.7025 33.6034 79.5779 33.4805 79.5779 33.324C79.5779 33.1675 79.7025 33.0445 79.859 33.0445Z" fill="#1D1D1D"/>
<path d="M24.4864 38.216C24.4864 38.6407 24.4002 38.962 24.2278 39.1799C24.0555 39.3977 23.8081 39.5067 23.4856 39.5067C23.163 39.5067 22.915 39.3977 22.7414 39.1799C22.5691 38.962 22.4829 38.6407 22.4829 38.216C22.4829 37.7913 22.5691 37.4725 22.7414 37.2595C22.915 37.0465 23.163 36.9401 23.4856 36.9401C23.8081 36.9401 24.0555 37.0465 24.2278 37.2595C24.4002 37.4725 24.4864 37.7913 24.4864 38.216ZM23.9343 38.216C23.9343 37.651 23.7847 37.3685 23.4856 37.3685C23.1852 37.3685 23.035 37.651 23.035 38.216C23.035 38.4991 23.0726 38.7139 23.1476 38.8604C23.224 39.0057 23.3366 39.0783 23.4856 39.0783C23.6345 39.0783 23.7465 39.0057 23.8216 38.8604C23.8967 38.7139 23.9343 38.4991 23.9343 38.216Z" fill="#1D1D1D"/>
<path d="M26.9166 39.4698L26.3811 38.5188H26.0617V39.4698H25.517V36.9788H26.4292C26.7541 36.9788 26.9973 37.0422 27.1585 37.169C27.3198 37.2958 27.4004 37.4786 27.4004 37.7174C27.4004 37.8861 27.3549 38.0295 27.2638 38.1477C27.1727 38.2658 27.0465 38.3489 26.8852 38.3969L27.5297 39.4698H26.9166ZM26.852 37.7396C26.852 37.6239 26.8138 37.5389 26.7375 37.4848C26.6612 37.4294 26.5393 37.4017 26.3719 37.4017H26.0617V38.096H26.3867C26.6969 38.096 26.852 37.9772 26.852 37.7396Z" fill="#1D1D1D"/>
<path d="M30.2609 39.1282C29.9618 39.3805 29.6584 39.5067 29.3506 39.5067C29.0293 39.5067 28.7782 39.3941 28.5972 39.1688C28.4163 38.9423 28.3258 38.6235 28.3258 38.2123C28.3258 37.3641 28.6692 36.9401 29.3561 36.9401C29.5777 36.9401 29.7587 36.9973 29.899 37.1118C30.0393 37.2263 30.1427 37.3998 30.2092 37.6325L29.7033 37.7322C29.638 37.4897 29.5242 37.3685 29.3617 37.3685C29.1955 37.3685 29.073 37.4349 28.9942 37.5679C28.9167 37.7008 28.8779 37.9156 28.8779 38.2123C28.8779 38.4868 28.9191 38.6985 29.0016 38.8475C29.0841 38.9964 29.2097 39.0709 29.3783 39.0709C29.4435 39.0709 29.5106 39.0586 29.5796 39.034C29.6497 39.0094 29.7107 38.9761 29.7624 38.9343V38.5004H29.2564V38.0978H30.2609V39.1282Z" fill="#1D1D1D"/>
<path d="M33.3615 39.4698H32.8186L32.6487 38.8604H31.8067L31.6369 39.4698H31.0921L31.9101 36.9788H32.5453L33.3615 39.4698ZM32.2277 37.3149C32.2179 37.3666 32.1994 37.4442 32.1723 37.5476C32.1465 37.6497 32.0628 37.9507 31.9212 38.4505H32.5343C32.3902 37.9433 32.3053 37.6399 32.2794 37.5402C32.2548 37.4405 32.2376 37.3654 32.2277 37.3149Z" fill="#1D1D1D"/>
<path d="M35.3874 39.4698L34.6783 37.6048C34.7128 37.915 34.73 38.1329 34.73 38.2585V39.4698H34.2555V36.9788H34.8777L35.6034 38.8937C35.569 38.6044 35.5517 38.3797 35.5517 38.2197V36.9788H36.0263V39.4698H35.3874Z" fill="#1D1D1D"/>
<path d="M37.2102 36.9788H38.9016V37.3998H38.3273V39.0488H38.9016V39.4698H37.2102V39.0488H37.7844V37.3998H37.2102V36.9788Z" fill="#1D1D1D"/>
<path d="M41.9356 39.4698H39.995V39.0838L41.234 37.4054H40.1353V36.9788H41.8599V37.3574L40.6209 39.0432H41.9356V39.4698Z" fill="#1D1D1D"/>
<path d="M45.0177 39.4698H44.4749L44.305 38.8604H43.463L43.2931 39.4698H42.7484L43.5664 36.9788H44.2016L45.0177 39.4698ZM43.884 37.3149C43.8741 37.3666 43.8557 37.4442 43.8286 37.5476C43.8027 37.6497 43.719 37.9507 43.5775 38.4505H44.1905C44.0465 37.9433 43.9615 37.6399 43.9357 37.5402C43.9111 37.4405 43.8938 37.3654 43.884 37.3149Z" fill="#1D1D1D"/>
<path d="M47.0695 37.3998V39.4698H46.5248V37.3998H45.7751V36.9788H47.8191V37.3998H47.0695ZM47.0178 39.8464C47.0178 39.9363 47.0042 40.0169 46.9771 40.0883C46.9513 40.161 46.907 40.2348 46.8442 40.3099H46.5912C46.7069 40.1868 46.7648 40.0822 46.7648 39.996H46.5654V39.6138H47.0178V39.8464Z" fill="#1D1D1D"/>
<path d="M48.8664 36.9788H50.5578V37.3998H49.9835V39.0488H50.5578V39.4698H48.8664V39.0488H49.4407V37.3998H48.8664V36.9788Z" fill="#1D1D1D"/>
<path d="M53.7599 39.4698H53.217L53.0472 38.8604H52.2052L52.0353 39.4698H51.4906L52.3086 36.9788H52.9438L53.7599 39.4698ZM52.6262 37.3149C52.6163 37.3666 52.5979 37.4442 52.5708 37.5476C52.5449 37.6497 52.4612 37.9507 52.3196 38.4505H52.9327C52.7887 37.9433 52.7037 37.6399 52.6779 37.5402C52.6532 37.4405 52.636 37.3654 52.6262 37.3149Z" fill="#1D1D1D"/>
<path d="M59.4699 38.7478C59.4699 38.9841 59.3794 39.17 59.1984 39.3054C59.0187 39.4396 58.7682 39.5067 58.4469 39.5067C58.1576 39.5067 57.9219 39.4458 57.7397 39.3239C57.5575 39.202 57.4406 39.0248 57.3889 38.7921L57.9151 38.7238C57.9434 38.8395 58.0025 38.9312 58.0924 38.9989C58.1822 39.0654 58.3053 39.0986 58.4617 39.0986C58.6242 39.0986 58.7442 39.0728 58.8217 39.0211C58.9005 38.9694 58.9399 38.8887 58.9399 38.7792C58.9399 38.6979 58.9054 38.6296 58.8365 38.5742C58.7676 38.5176 58.6672 38.4733 58.5355 38.4413C58.2709 38.3773 58.0838 38.3219 57.9742 38.2751C57.8659 38.2271 57.7791 38.1735 57.7138 38.1144C57.6486 38.0553 57.5981 37.9864 57.5624 37.9076C57.528 37.8276 57.5107 37.7384 57.5107 37.6399C57.5107 37.4245 57.5969 37.254 57.7692 37.1284C57.9428 37.0028 58.1712 36.9401 58.4543 36.9401C58.73 36.9401 58.9454 36.9948 59.1006 37.1044C59.2557 37.2127 59.356 37.3814 59.4015 37.6103L58.8734 37.6639C58.8193 37.4386 58.6759 37.326 58.4432 37.326C58.3127 37.326 58.213 37.3506 58.1441 37.3998C58.0751 37.4478 58.0407 37.5174 58.0407 37.6085C58.0407 37.6688 58.0573 37.7193 58.0905 37.7599C58.1238 37.7993 58.1687 37.8332 58.2253 37.8615C58.2832 37.8885 58.4001 37.9249 58.5762 37.9704C58.8076 38.027 58.9855 38.0904 59.1098 38.1606C59.2341 38.2295 59.3252 38.3132 59.3831 38.4117C59.4409 38.5102 59.4699 38.6222 59.4699 38.7478Z" fill="#1D1D1D"/>
<path d="M61.6398 37.3998V39.4698H61.0951V37.3998H60.3454V36.9788H62.3895V37.3998H61.6398Z" fill="#1D1D1D"/>
<path d="M64.2529 39.5067C63.95 39.5067 63.7297 39.4242 63.5918 39.2593C63.4539 39.0943 63.385 38.8395 63.385 38.4948V36.9788H63.9297V38.4893C63.9297 38.7047 63.9543 38.8573 64.0036 38.9472C64.0541 39.0358 64.1421 39.0802 64.2676 39.0802C64.3957 39.0802 64.4886 39.0328 64.5465 38.938C64.6043 38.8432 64.6332 38.6875 64.6332 38.4708V36.9788H65.178V38.4671C65.178 38.8192 65.1016 39.0808 64.949 39.2519C64.7976 39.4218 64.5655 39.5067 64.2529 39.5067Z" fill="#1D1D1D"/>
<path d="M68.1825 38.2049C68.1825 38.6111 68.0877 38.9238 67.8981 39.1429C67.7086 39.3608 67.4384 39.4698 67.0875 39.4698H66.3102V36.9788H66.9767C67.3805 36.9788 67.6821 37.0804 67.8815 37.2835C68.0822 37.4854 68.1825 37.7925 68.1825 38.2049ZM67.6341 38.2049C67.6341 37.9255 67.5812 37.7217 67.4753 37.5937C67.3707 37.4645 67.2014 37.3998 66.9675 37.3998H66.8549V39.0488H67.0432C67.4371 39.0488 67.6341 38.7675 67.6341 38.2049Z" fill="#1D1D1D"/>
<path d="M69.2279 39.4698V36.9788H71.0153V37.3998H69.7726V37.9981H70.9027V38.4191H69.7726V39.0488H71.091V39.4698H69.2279Z" fill="#1D1D1D"/>
<path d="M73.2702 39.4698L72.5611 37.6048C72.5956 37.915 72.6128 38.1329 72.6128 38.2585V39.4698H72.1383V36.9788H72.7605L73.4862 38.8937C73.4517 38.6044 73.4345 38.3797 73.4345 38.2197V36.9788H73.9091V39.4698H73.2702Z" fill="#1D1D1D"/>
<path d="M76.2101 37.3998V39.4698H75.6654V37.3998H74.9157V36.9788H76.9598V37.3998H76.2101ZM76.1584 39.8464C76.1584 39.9363 76.1448 40.0169 76.1178 40.0883C76.0919 40.161 76.0476 40.2348 75.9848 40.3099H75.7318C75.8476 40.1868 75.9054 40.0822 75.9054 39.996H75.706V39.6138H76.1584V39.8464Z" fill="#1D1D1D"/>
<path d="M78.007 36.9788H79.6984V37.3998H79.1241V39.0488H79.6984V39.4698H78.007V39.0488H78.5813V37.3998H78.007V36.9788Z" fill="#1D1D1D"/>
<path d="M81.0208 39.4698V36.9788H81.5655V39.0488H82.7029V39.4698H81.0208Z" fill="#1D1D1D"/>
<path d="M85.6816 38.216C85.6816 38.6407 85.5955 38.962 85.4231 39.1799C85.2508 39.3977 85.0033 39.5067 84.6808 39.5067C84.3583 39.5067 84.1103 39.3977 83.9367 39.1799C83.7644 38.962 83.6782 38.6407 83.6782 38.216C83.6782 37.7913 83.7644 37.4725 83.9367 37.2595C84.1103 37.0465 84.3583 36.9401 84.6808 36.9401C85.0033 36.9401 85.2508 37.0465 85.4231 37.2595C85.5955 37.4725 85.6816 37.7913 85.6816 38.216ZM85.1295 38.216C85.1295 37.651 84.98 37.3685 84.6808 37.3685C84.3805 37.3685 84.2303 37.651 84.2303 38.216C84.2303 38.4991 84.2678 38.7139 84.3429 38.8604C84.4192 39.0057 84.5319 39.0783 84.6808 39.0783C84.8298 39.0783 84.9418 39.0057 85.0169 38.8604C85.092 38.7139 85.1295 38.4991 85.1295 38.216Z" fill="#1D1D1D"/>
<path d="M88.1119 39.4698L87.5764 38.5188H87.257V39.4698H86.7123V36.9788H87.6244C87.9494 36.9788 88.1925 37.0422 88.3538 37.169C88.5151 37.2958 88.5957 37.4786 88.5957 37.7174C88.5957 37.8861 88.5501 38.0295 88.459 38.1477C88.368 38.2658 88.2418 38.3489 88.0805 38.3969L88.7249 39.4698H88.1119ZM88.0473 37.7396C88.0473 37.6239 88.0091 37.5389 87.9328 37.4848C87.8565 37.4294 87.7346 37.4017 87.5672 37.4017H87.257V38.096H87.582C87.8922 38.096 88.0473 37.9772 88.0473 37.7396Z" fill="#1D1D1D"/>
<path d="M54.3857 41.9612C54.3857 42.2965 54.3075 42.5546 54.151 42.7355C53.9945 42.9153 53.7715 43.0052 53.4819 43.0052H52.8402V40.9491H53.3905C53.7238 40.9491 53.9727 41.033 54.1373 41.2006C54.3029 41.3673 54.3857 41.6208 54.3857 41.9612ZM53.9331 41.9612C53.9331 41.7305 53.8894 41.5624 53.802 41.4567C53.7156 41.35 53.5759 41.2966 53.3828 41.2966H53.2899V42.6577H53.4453C53.7705 42.6577 53.9331 42.4255 53.9331 41.9612Z" fill="#1D1D1D"/>
<path d="M54.8422 40.9491H56.2383V41.2966H55.7643V42.6577H56.2383V43.0052H54.8422V42.6577H55.3162V41.2966H54.8422V40.9491Z" fill="#1D1D1D"/>
<path d="M57.7113 43.0052L57.126 41.4658C57.1545 41.7219 57.1687 41.9017 57.1687 42.0054V43.0052H56.777V40.9491H57.2906L57.8896 42.5297C57.8612 42.2909 57.847 42.1055 57.847 41.9734V40.9491H58.2387V43.0052H57.7113Z" fill="#1D1D1D"/>
<path d="M17.8143 44.7224V45.4753H18.8447V45.7161H17.8143V46.5407H17.5232V44.4846H18.8812V44.7224H17.8143Z" fill="#1D1D1D"/>
<path d="M20.4285 46.5407L20.2182 45.9585H19.3601L19.1513 46.5407H18.8525L19.6298 44.4846H19.9606L20.7242 46.5407H20.4285ZM19.7914 44.7041L19.7731 44.7635L19.668 45.0867L19.4378 45.7314H20.1435L19.8798 44.9693L19.7914 44.7041Z" fill="#1D1D1D"/>
<path d="M20.9561 45.5028C20.9561 45.7802 20.9993 45.9885 21.0857 46.1277C21.1731 46.2659 21.3062 46.335 21.485 46.335C21.5876 46.335 21.6806 46.3004 21.7639 46.2313C21.8473 46.1612 21.9179 46.0525 21.9758 45.9051L22.2181 46.0042C22.0667 46.3822 21.8213 46.5712 21.482 46.5712C21.2147 46.5712 21.009 46.4792 20.8647 46.2953C20.7214 46.1114 20.6498 45.8472 20.6498 45.5028C20.6498 44.8027 20.9221 44.4526 21.4667 44.4526C21.8112 44.4526 22.0479 44.6228 22.177 44.9632L21.9209 45.0623C21.8833 44.9475 21.8244 44.857 21.7441 44.791C21.6649 44.7239 21.5729 44.6904 21.4682 44.6904C21.2945 44.6904 21.1654 44.7559 21.0811 44.887C20.9978 45.0181 20.9561 45.2233 20.9561 45.5028Z" fill="#1D1D1D"/>
<path d="M23.7563 45.7939C23.7563 46.0652 23.6984 46.2628 23.5825 46.3868C23.4667 46.5097 23.2807 46.5712 23.0247 46.5712C22.7767 46.5712 22.5969 46.5118 22.4851 46.3929C22.3744 46.273 22.319 46.0825 22.319 45.8213V44.4846H22.6101V45.7817C22.6101 45.989 22.6396 46.1333 22.6985 46.2146C22.7585 46.2948 22.8667 46.335 23.0232 46.335C23.1867 46.335 23.3016 46.2933 23.3676 46.21C23.4337 46.1267 23.4667 45.9773 23.4667 45.7619V44.4846H23.7563V45.7939Z" fill="#1D1D1D"/>
<path d="M24.0888 46.5407V44.4846H24.3799V46.303H25.4042V46.5407H24.0888Z" fill="#1D1D1D"/>
<path d="M26.4332 44.7224V46.5407H26.1436V44.7224H25.4684V44.4846H27.1084V44.7224H26.4332Z" fill="#1D1D1D"/>
<path d="M28.5536 46.5407L28.3433 45.9585H27.4851L27.2763 46.5407H26.9776L27.7549 44.4846H28.0857L28.8493 46.5407H28.5536ZM27.9165 44.7041L27.8982 44.7635L27.793 45.0867L27.5629 45.7314H28.2686L28.0049 44.9693L27.9165 44.7041Z" fill="#1D1D1D"/>
<path d="M29.6833 44.7224V46.5407H29.3937V44.7224H28.7184V44.4846H30.3585V44.7224H29.6833Z" fill="#1D1D1D"/>
<path d="M30.4745 46.5407V44.4846H31.8753V44.7224H30.7657V45.3656H31.7838V45.6003H30.7657V46.303H31.9378V46.5407H30.4745Z" fill="#1D1D1D"/>
<path d="M33.4286 46.5407L33.2183 45.9585H32.3602L32.1514 46.5407H31.8526L32.63 44.4846H32.9607L33.7243 46.5407H33.4286ZM32.7915 44.7041L32.7732 44.7635L32.6681 45.0867L32.4379 45.7314H33.1436L32.8799 44.9693L32.7915 44.7041Z" fill="#1D1D1D"/>
<path d="M36.8174 45.4921C36.8174 45.8284 36.7391 46.0875 36.5826 46.2694C36.4272 46.4503 36.2041 46.5407 35.9135 46.5407H35.3496V44.4846H35.8236C36.1579 44.4846 36.4069 44.5684 36.5705 44.7361C36.7351 44.9027 36.8174 45.1547 36.8174 45.4921ZM36.5247 45.4921C36.5247 45.2238 36.4688 45.0287 36.3571 44.9068C36.2453 44.7839 36.068 44.7224 35.8251 44.7224H35.6407V46.303H35.8876C36.103 46.303 36.2631 46.2354 36.3677 46.1002C36.4724 45.9651 36.5247 45.7624 36.5247 45.4921Z" fill="#1D1D1D"/>
<path d="M36.9746 46.5407V44.4846H38.3753V44.7224H37.2657V45.3656H38.2839V45.6003H37.2657V46.303H38.4378V46.5407H36.9746Z" fill="#1D1D1D"/>
<path d="M40.2856 44.4846H41.54V44.7224H41.0584V46.303H41.54V46.5407H40.2856V46.303H40.7672V44.7224H40.2856V44.4846Z" fill="#1D1D1D"/>
<path d="M42.8769 46.5407L42.0844 44.8184C42.1006 44.9932 42.1088 45.1222 42.1088 45.2055V46.5407H41.8496V44.4846H42.188L42.9928 46.2191C42.9745 46.0728 42.9653 45.9336 42.9653 45.8015V44.4846H43.2275V46.5407H42.8769Z" fill="#1D1D1D"/>
<path d="M44.9059 46.338C44.6732 46.4935 44.4385 46.5712 44.2017 46.5712C43.9477 46.5712 43.7505 46.4772 43.6103 46.2892C43.4701 46.1002 43.4 45.8381 43.4 45.5028C43.4 45.1502 43.467 44.887 43.6012 44.7132C43.7353 44.5395 43.937 44.4526 44.2063 44.4526C44.5578 44.4526 44.7921 44.6208 44.9089 44.9571L44.6483 45.0425C44.567 44.8077 44.4207 44.6904 44.2093 44.6904C44.0376 44.6904 43.9106 44.7544 43.8283 44.8824C43.747 45.0105 43.7063 45.2172 43.7063 45.5028C43.7063 46.0576 43.8796 46.335 44.2261 46.335C44.2952 46.335 44.3668 46.3243 44.441 46.303C44.5152 46.2816 44.5756 46.2547 44.6224 46.2222V45.71H44.1758V45.4662H44.9059V46.338Z" fill="#1D1D1D"/>
<path d="M45.1606 44.4846H46.415V44.7224H45.9334V46.303H46.415V46.5407H45.1606V46.303H45.6423V44.7224H45.1606V44.4846Z" fill="#1D1D1D"/>
<path d="M47.752 46.5407L46.9594 44.8184C46.9757 44.9932 46.9838 45.1222 46.9838 45.2055V46.5407H46.7247V44.4846H47.0631L47.8678 46.2191C47.8495 46.0728 47.8404 45.9336 47.8404 45.8015V44.4846H48.1026V46.5407H47.752Z" fill="#1D1D1D"/>
<path d="M48.3497 46.5407V44.4846H49.7504V44.7224H48.6408V45.3656H49.659V45.6003H48.6408V46.303H49.8129V46.5407H48.3497Z" fill="#1D1D1D"/>
<path d="M51.1864 46.5407L50.6286 45.6643H50.2658V46.5407H49.9747V44.4846H50.7094C50.9461 44.4846 51.1265 44.5339 51.2505 44.6325C51.3744 44.73 51.4364 44.8702 51.4364 45.0531C51.4364 45.2045 51.3887 45.3321 51.2931 45.4357C51.1986 45.5393 51.0716 45.6044 50.9121 45.6308L51.5218 46.5407H51.1864ZM51.1438 45.0577C51.1438 44.8311 50.9893 44.7178 50.6804 44.7178H50.2658V45.4342H50.6926C50.8379 45.4342 50.9492 45.4017 51.0264 45.3366C51.1046 45.2716 51.1438 45.1786 51.1438 45.0577Z" fill="#1D1D1D"/>
<path d="M51.6607 44.4846H52.9151V44.7224H52.4335V46.303H52.9151V46.5407H51.6607V46.303H52.1423V44.7224H51.6607V44.4846Z" fill="#1D1D1D"/>
<path d="M53.2248 46.5407V44.4846H54.6255V44.7224H53.5159V45.3656H54.534V45.6003H53.5159V46.303H54.688V46.5407H53.2248Z" fill="#1D1D1D"/>
<path d="M56.5358 44.4846H57.7902V44.7224H57.3085V46.303H57.7902V46.5407H56.5358V46.303H57.0174V44.7224H56.5358V44.4846Z" fill="#1D1D1D"/>
<path d="M59.1271 46.5407L58.3345 44.8184C58.3508 44.9932 58.3589 45.1222 58.3589 45.2055V46.5407H58.0998V44.4846H58.4382L59.2429 46.2191C59.2246 46.0728 59.2155 45.9336 59.2155 45.8015V44.4846H59.4777V46.5407H59.1271Z" fill="#1D1D1D"/>
<path d="M61.1926 45.4921C61.1926 45.8284 61.1144 46.0875 60.9579 46.2694C60.8024 46.4503 60.5794 46.5407 60.2888 46.5407H59.7248V44.4846H60.1988C60.5331 44.4846 60.7821 44.5684 60.9457 44.7361C61.1103 44.9027 61.1926 45.1547 61.1926 45.4921ZM60.9 45.4921C60.9 45.2238 60.8441 45.0287 60.7323 44.9068C60.6205 44.7839 60.4432 44.7224 60.2004 44.7224H60.0159V46.303H60.2629C60.4783 46.303 60.6383 46.2354 60.743 46.1002C60.8476 45.9651 60.9 45.7624 60.9 45.4921Z" fill="#1D1D1D"/>
<path d="M62.7566 45.7939C62.7566 46.0652 62.6987 46.2628 62.5829 46.3868C62.4671 46.5097 62.2811 46.5712 62.025 46.5712C61.7771 46.5712 61.5973 46.5118 61.4855 46.3929C61.3747 46.273 61.3194 46.0825 61.3194 45.8213V44.4846H61.6105V45.7817C61.6105 45.989 61.6399 46.1333 61.6989 46.2146C61.7588 46.2948 61.867 46.335 62.0235 46.335C62.1871 46.335 62.3019 46.2933 62.368 46.21C62.434 46.1267 62.4671 45.9773 62.4671 45.7619V44.4846H62.7566V45.7939Z" fill="#1D1D1D"/>
<path d="M64.4472 45.9768C64.4472 46.1637 64.3786 46.3096 64.2414 46.4142C64.1053 46.5189 63.9107 46.5712 63.6577 46.5712C63.1933 46.5712 62.9235 46.3893 62.8483 46.0256L63.1303 45.9692C63.1588 46.1002 63.2177 46.1958 63.3071 46.2557C63.3965 46.3146 63.5159 46.3441 63.6653 46.3441C63.8269 46.3441 63.9493 46.3126 64.0326 46.2496C64.117 46.1866 64.1591 46.0972 64.1591 45.9814C64.1591 45.9102 64.1424 45.8523 64.1088 45.8076C64.0763 45.7629 64.0331 45.7263 63.9793 45.6979C63.9254 45.6694 63.8645 45.6465 63.7964 45.6293C63.7293 45.611 63.6612 45.5932 63.5921 45.5759C63.4285 45.5332 63.3117 45.4951 63.2416 45.4616C63.1725 45.4281 63.1171 45.39 63.0754 45.3473C63.0338 45.3036 63.0023 45.2538 62.9809 45.1979C62.9596 45.142 62.9489 45.0765 62.9489 45.0013C62.9489 44.8255 63.0104 44.6904 63.1334 44.5959C63.2573 44.5004 63.4346 44.4526 63.6653 44.4526C63.8807 44.4526 64.0453 44.4902 64.1591 44.5654C64.2729 44.6406 64.3522 44.7676 64.3969 44.9464L64.1104 44.9967C64.086 44.8829 64.0372 44.8006 63.964 44.7498C63.8909 44.698 63.7908 44.6721 63.6638 44.6721C63.3762 44.6721 63.2324 44.7803 63.2324 44.9967C63.2324 45.0577 63.2456 45.1075 63.2721 45.1461C63.2995 45.1837 63.3361 45.2152 63.3818 45.2406C63.4285 45.265 63.4824 45.2853 63.5434 45.3016C63.6053 45.3178 63.6714 45.3351 63.7415 45.3534C63.8827 45.389 63.9844 45.4189 64.0463 45.4433C64.1083 45.4667 64.1632 45.4936 64.2109 45.5241C64.2597 45.5546 64.3014 45.5907 64.3359 45.6323C64.3705 45.674 64.3974 45.7227 64.4167 45.7786C64.437 45.8345 64.4472 45.9006 64.4472 45.9768Z" fill="#1D1D1D"/>
<path d="M65.4336 44.7224V46.5407H65.144V44.7224H64.4688V44.4846H66.1088V44.7224H65.4336Z" fill="#1D1D1D"/>
<path d="M67.4366 46.5407L66.8787 45.6643H66.516V46.5407H66.2249V44.4846H66.9595C67.1963 44.4846 67.3766 44.5339 67.5006 44.6325C67.6246 44.73 67.6866 44.8702 67.6866 45.0531C67.6866 45.2045 67.6388 45.3321 67.5433 45.4357C67.4488 45.5393 67.3218 45.6044 67.1622 45.6308L67.7719 46.5407H67.4366ZM67.3939 45.0577C67.3939 44.8311 67.2395 44.7178 66.9306 44.7178H66.516V45.4342H66.9428C67.0881 45.4342 67.1993 45.4017 67.2766 45.3366C67.3548 45.2716 67.3939 45.1786 67.3939 45.0577Z" fill="#1D1D1D"/>
<path d="M67.9109 44.4846H69.1653V44.7224H68.6836V46.303H69.1653V46.5407H67.9109V46.303H68.3925V44.7224H67.9109V44.4846Z" fill="#1D1D1D"/>
<path d="M70.804 46.5407L70.5937 45.9585H69.7355L69.5267 46.5407H69.228L70.0053 44.4846H70.3361L71.0997 46.5407H70.804ZM70.1669 44.7041L70.1486 44.7635L70.0434 45.0867L69.8133 45.7314H70.519L70.2553 44.9693L70.1669 44.7041Z" fill="#1D1D1D"/>
<path d="M71.2142 46.5407V44.4846H71.5054V46.303H72.5296V46.5407H71.2142Z" fill="#1D1D1D"/>
<path d="M74.054 46.5407L73.8437 45.9585H72.9856L72.7768 46.5407H72.478L73.2554 44.4846H73.5861L74.3497 46.5407H74.054ZM73.4169 44.7041L73.3986 44.7635L73.2935 45.0867L73.0633 45.7314H73.769L73.5053 44.9693L73.4169 44.7041ZM73.4123 44.3368C73.2863 44.3368 73.1807 44.3007 73.0953 44.2285C73.011 44.1564 72.9581 44.0609 72.9368 43.942H73.1304C73.1476 44.006 73.1781 44.0558 73.2218 44.0914C73.2655 44.1269 73.329 44.1447 73.4123 44.1447C73.4987 44.1447 73.5632 44.1269 73.6059 44.0914C73.6496 44.0558 73.6801 44.006 73.6974 43.942H73.8909C73.8665 44.0629 73.8122 44.1589 73.7278 44.2301C73.6445 44.3012 73.5394 44.3368 73.4123 44.3368Z" fill="#1D1D1D"/>
<path d="M77.4473 45.9768C77.4473 46.1637 77.3787 46.3096 77.2416 46.4142C77.1054 46.5189 76.9108 46.5712 76.6578 46.5712C76.1934 46.5712 75.9237 46.3893 75.8485 46.0256L76.1304 45.9692C76.1589 46.1002 76.2178 46.1958 76.3072 46.2557C76.3967 46.3146 76.5161 46.3441 76.6654 46.3441C76.827 46.3441 76.9494 46.3126 77.0328 46.2496C77.1171 46.1866 77.1593 46.0972 77.1593 45.9814C77.1593 45.9102 77.1425 45.8523 77.109 45.8076C77.0764 45.7629 77.0333 45.7263 76.9794 45.6979C76.9255 45.6694 76.8646 45.6465 76.7965 45.6293C76.7294 45.611 76.6614 45.5932 76.5923 45.5759C76.4287 45.5332 76.3118 45.4951 76.2417 45.4616C76.1726 45.4281 76.1172 45.39 76.0756 45.3473C76.0339 45.3036 76.0024 45.2538 75.9811 45.1979C75.9597 45.142 75.9491 45.0765 75.9491 45.0013C75.9491 44.8255 76.0105 44.6904 76.1335 44.5959C76.2575 44.5004 76.4348 44.4526 76.6654 44.4526C76.8808 44.4526 77.0455 44.4902 77.1593 44.5654C77.2731 44.6406 77.3523 44.7676 77.397 44.9464L77.1105 44.9967C77.0861 44.8829 77.0373 44.8006 76.9642 44.7498C76.891 44.698 76.7909 44.6721 76.6639 44.6721C76.3763 44.6721 76.2326 44.7803 76.2326 44.9967C76.2326 45.0577 76.2458 45.1075 76.2722 45.1461C76.2996 45.1837 76.3362 45.2152 76.3819 45.2406C76.4287 45.265 76.4825 45.2853 76.5435 45.3016C76.6055 45.3178 76.6715 45.3351 76.7416 45.3534C76.8829 45.389 76.9845 45.4189 77.0465 45.4433C77.1085 45.4667 77.1633 45.4936 77.2111 45.5241C77.2599 45.5546 77.3015 45.5907 77.3361 45.6323C77.3706 45.674 77.3975 45.7227 77.4168 45.7786C77.4372 45.8345 77.4473 45.9006 77.4473 45.9768ZM76.8255 46.8517C76.8255 46.9401 76.8143 47.0137 76.7919 47.0727C76.7696 47.1326 76.7381 47.1865 76.6974 47.2342H76.5191C76.6146 47.1326 76.6624 47.0361 76.6624 46.9446H76.5282V46.6901H76.8255V46.8517Z" fill="#1D1D1D"/>
<path d="M77.661 44.4846H78.9153V44.7224H78.4337V46.303H78.9153V46.5407H77.661V46.303H78.1426V44.7224H77.661V44.4846Z" fill="#1D1D1D"/>
<path d="M82.0617 46.5407L81.5039 45.6643H81.1411V46.5407H80.85V44.4846H81.5847C81.8214 44.4846 82.0018 44.5339 82.1258 44.6325C82.2497 44.73 82.3117 44.8702 82.3117 45.0531C82.3117 45.2045 82.2639 45.3321 82.1684 45.4357C82.0739 45.5393 81.9469 45.6044 81.7874 45.6308L82.3971 46.5407H82.0617ZM82.0191 45.0577C82.0191 44.8311 81.8646 44.7178 81.5557 44.7178H81.1411V45.4342H81.5679C81.7132 45.4342 81.8245 45.4017 81.9017 45.3366C81.9799 45.2716 82.0191 45.1786 82.0191 45.0577Z" fill="#1D1D1D"/>
<path d="M83.9443 45.5028C83.9443 45.8452 83.8768 46.1089 83.7416 46.2938C83.6075 46.4787 83.4144 46.5712 83.1624 46.5712C82.9094 46.5712 82.7164 46.4803 82.5832 46.2984C82.4501 46.1165 82.3836 45.8513 82.3836 45.5028C82.3836 45.1603 82.4496 44.8997 82.5817 44.7209C82.7138 44.542 82.9084 44.4526 83.1655 44.4526C83.4165 44.4526 83.609 44.541 83.7431 44.7178C83.8773 44.8936 83.9443 45.1552 83.9443 45.5028ZM83.638 45.5028C83.638 44.9612 83.4805 44.6904 83.1655 44.6904C82.8484 44.6904 82.6899 44.9612 82.6899 45.5028C82.6899 45.7771 82.7301 45.9844 82.8104 46.1246C82.8906 46.2648 83.0085 46.335 83.164 46.335C83.3296 46.335 83.45 46.2638 83.5252 46.1216C83.6004 45.9793 83.638 45.773 83.638 45.5028Z" fill="#1D1D1D"/>
<path d="M85.609 45.9615C85.609 46.1444 85.5394 46.2867 85.4002 46.3883C85.261 46.4899 85.0674 46.5407 84.8195 46.5407H84.1V44.4846H84.728C85.232 44.4846 85.484 44.6507 85.484 44.983C85.484 45.107 85.4474 45.2106 85.3743 45.2939C85.3011 45.3773 85.2015 45.4316 85.0755 45.457C85.2452 45.4753 85.3763 45.5297 85.4688 45.6201C85.5622 45.7106 85.609 45.8244 85.609 45.9615ZM85.1914 45.0196C85.1914 44.9109 85.1527 44.8336 85.0755 44.7879C84.9993 44.7412 84.8845 44.7178 84.7311 44.7178H84.3912V45.3519H84.7341C85.0389 45.3519 85.1914 45.2411 85.1914 45.0196ZM85.3148 45.9356C85.3148 45.8198 85.2696 45.7314 85.1792 45.6704C85.0887 45.6095 84.9541 45.579 84.7753 45.579H84.3912V46.3075H84.7966C84.9744 46.3075 85.105 46.277 85.1883 46.2161C85.2726 46.1541 85.3148 46.0606 85.3148 45.9356Z" fill="#1D1D1D"/>
<path d="M87.1944 45.5028C87.1944 45.8452 87.1268 46.1089 86.9917 46.2938C86.8575 46.4787 86.6645 46.5712 86.4125 46.5712C86.1595 46.5712 85.9664 46.4803 85.8333 46.2984C85.7002 46.1165 85.6336 45.8513 85.6336 45.5028C85.6336 45.1603 85.6997 44.8997 85.8318 44.7209C85.9639 44.542 86.1584 44.4526 86.4155 44.4526C86.6665 44.4526 86.8591 44.541 86.9932 44.7178C87.1273 44.8936 87.1944 45.1552 87.1944 45.5028ZM86.888 45.5028C86.888 44.9612 86.7305 44.6904 86.4155 44.6904C86.0985 44.6904 85.94 44.9612 85.94 45.5028C85.94 45.7771 85.9801 45.9844 86.0604 46.1246C86.1407 46.2648 86.2585 46.335 86.414 46.335C86.5796 46.335 86.7 46.2638 86.7752 46.1216C86.8504 45.9793 86.888 45.773 86.888 45.5028Z" fill="#1D1D1D"/>
<path d="M88.1838 44.7224V46.5407H87.8942V44.7224H87.219V44.4846H88.859V44.7224H88.1838Z" fill="#1D1D1D"/>
<path d="M89.0361 44.4846H90.2905V44.7224H89.8088V46.303H90.2905V46.5407H89.0361V46.303H89.5177V44.7224H89.0361V44.4846Z" fill="#1D1D1D"/>
<path d="M90.8318 45.5028C90.8318 45.7802 90.875 45.9885 90.9613 46.1277C91.0487 46.2659 91.1818 46.335 91.3607 46.335C91.4633 46.335 91.5563 46.3004 91.6396 46.2313C91.7229 46.1612 91.7935 46.0525 91.8515 45.9051L92.0938 46.0042C91.9424 46.3822 91.697 46.5712 91.3576 46.5712C91.0904 46.5712 90.8846 46.4792 90.7403 46.2953C90.5971 46.1114 90.5254 45.8472 90.5254 45.5028C90.5254 44.8027 90.7977 44.4526 91.3424 44.4526C91.6869 44.4526 91.9236 44.6228 92.0527 44.9632L91.7966 45.0623C91.759 44.9475 91.7001 44.857 91.6198 44.791C91.5405 44.7239 91.4486 44.6904 91.3439 44.6904C91.1702 44.6904 91.0411 44.7559 90.9568 44.887C90.8735 45.0181 90.8318 45.2233 90.8318 45.5028Z" fill="#1D1D1D"/>
<path d="M93.5542 46.5407L93.3439 45.9585H92.4858L92.2769 46.5407H91.9782L92.7555 44.4846H93.0863L93.8499 46.5407H93.5542ZM92.9171 44.7041L92.8988 44.7635L92.7936 45.0867L92.5635 45.7314H93.2692L93.0055 44.9693L92.9171 44.7041ZM92.9125 44.3368C92.7865 44.3368 92.6808 44.3007 92.5955 44.2285C92.5112 44.1564 92.4583 44.0609 92.437 43.942H92.6306C92.6478 44.006 92.6783 44.0558 92.722 44.0914C92.7657 44.1269 92.8292 44.1447 92.9125 44.1447C92.9989 44.1447 93.0634 44.1269 93.1061 44.0914C93.1498 44.0558 93.1803 44.006 93.1976 43.942H93.3911C93.3667 44.0629 93.3124 44.1589 93.228 44.2301C93.1447 44.3012 93.0395 44.3368 92.9125 44.3368Z" fill="#1D1D1D"/>
</svg>
