<svg width="109" height="63" viewBox="0 0 109 63" fill="none" xmlns="http://www.w3.org/2000/svg">
<path d="M59.5968 21.1917C59.5968 23.4353 59.0767 25.1622 58.0365 26.3724C56.9963 27.5757 55.5137 28.1774 53.5887 28.1774C51.2329 28.1774 49.3232 26.2677 49.3232 23.912V18.0777C49.3232 16.0577 50.9608 14.4202 52.9808 14.4202C55.1962 14.4202 56.8511 14.9811 57.9453 16.1029C59.0463 17.2179 59.5968 18.9141 59.5968 21.1917ZM56.5877 21.1917C56.5877 19.6484 56.2972 18.5232 55.7163 17.8161C55.1422 17.1023 54.2135 16.7453 52.9301 16.7453C52.5888 16.7453 52.3121 17.022 52.3121 17.3634V24.8188C52.3121 25.3896 52.7748 25.8523 53.3455 25.8523C55.507 25.8523 56.5877 24.2987 56.5877 21.1917Z" fill="#EBF2FA"/>
<path d="M47.3513 26.3528C47.6444 27.2532 46.9733 28.1774 46.0264 28.1774C45.4001 28.1774 44.8508 27.7596 44.6836 27.156L44.5005 26.4947C44.2251 25.5004 43.3201 24.8121 42.2884 24.8121H41.1604C40.1287 24.8121 39.2237 25.5004 38.9483 26.4947L38.766 27.153C38.5983 27.7583 38.0474 28.1774 37.4193 28.1774C36.4692 28.1774 35.7961 27.2498 36.0907 26.3466L39.4414 16.0763C39.7637 15.0885 40.6848 14.4202 41.7238 14.4202C42.7634 14.4202 43.6849 15.0893 44.0066 16.0778L47.3513 26.3528ZM42.0081 17.5204C41.9439 17.2587 41.4993 17.2573 41.4316 17.5181C41.4279 17.5324 41.4242 17.5467 41.4204 17.5612C41.3089 18.0049 41.0011 19.1275 40.497 20.9289C40.2696 21.7416 40.8799 22.5481 41.7238 22.5481C42.5681 22.5481 43.1784 21.7408 42.9501 20.928C42.4341 19.091 42.1201 17.9551 42.0081 17.5204Z" fill="#EBF2FA"/>
<path d="M81.6481 31.9275C80.5122 31.9275 79.5914 32.8483 79.5914 33.9842V41.8652C79.5914 42.6905 78.9223 43.3596 78.097 43.3596C77.2716 43.3596 76.6026 42.6905 76.6026 41.8652V33.9842C76.6026 32.8483 75.6817 31.9275 74.5458 31.9275H73.3094C72.8564 31.9275 72.4891 31.5602 72.4891 31.1072C72.4891 30.6542 72.8564 30.2869 73.3094 30.2869H82.8846C83.3376 30.2869 83.7049 30.6542 83.7049 31.1072C83.7049 31.5602 83.3376 31.9275 82.8846 31.9275H81.6481Z" fill="#EBF2FA"/>
<path d="M66.048 31.9275C64.9666 31.9275 64.0899 32.8041 64.0899 33.8855C64.0899 34.9669 64.9666 35.8436 66.048 35.8436H69.2191C69.8612 35.8436 70.3817 36.3641 70.3817 37.0062C70.3817 37.6482 69.8612 38.1688 69.2191 38.1688H66.6853C65.2519 38.1688 64.0899 39.3308 64.0899 40.7642V41.8652C64.0899 42.6905 63.4208 43.3596 62.5955 43.3596C61.7702 43.3596 61.1011 42.6905 61.1011 41.8652V34.3551C61.1011 31.728 63.2308 29.5983 65.8579 29.5983H69.4501C70.0933 29.5983 70.6147 30.1197 70.6147 30.7629C70.6147 31.4061 70.0933 31.9275 69.4501 31.9275H66.048Z" fill="#EBF2FA"/>
<path d="M58.8049 41.535C59.098 42.4354 58.4269 43.3596 57.48 43.3596C56.8537 43.3596 56.3044 42.9417 56.1372 42.3381L55.9541 41.6769C55.6787 40.6826 54.7737 39.9942 53.742 39.9942H52.614C51.5823 39.9942 50.6773 40.6826 50.4019 41.6769L50.2196 42.3351C50.0519 42.9405 49.501 43.3596 48.8729 43.3596C47.9228 43.3596 47.2497 42.4319 47.5443 41.5287L50.895 31.2584C51.2173 30.2707 52.1384 29.6023 53.1774 29.6023C54.217 29.6023 55.1385 30.2714 55.4603 31.2599L58.8049 41.535ZM53.4617 32.7025C53.3975 32.4409 52.9529 32.4395 52.8852 32.7003C52.8815 32.7145 52.8778 32.7289 52.8741 32.7433C52.7625 33.187 52.4547 34.3096 51.9506 36.111C51.7232 36.9238 52.3335 37.7302 53.1774 37.7302C54.0217 37.7302 54.632 36.9229 54.4037 36.1101C53.8877 34.2731 53.5737 33.1372 53.4617 32.7025Z" fill="#EBF2FA"/>
<path d="M44.3931 43.3596C43.8742 43.3596 43.396 43.0791 43.1427 42.6263L40.931 38.673C40.7357 38.3238 40.3669 38.1075 39.9668 38.1075C39.3566 38.1075 38.8619 38.6022 38.8619 39.2124V41.8651C38.8619 42.6905 38.1928 43.3596 37.3675 43.3596C36.5421 43.3596 35.873 42.6905 35.873 41.8651V34.6074C35.873 31.8431 38.1139 29.6023 40.8781 29.6023C42.6613 29.6023 43.9953 29.9524 44.8801 30.6527C45.765 31.353 46.2074 32.3626 46.2074 33.6815C46.2074 34.613 45.9575 35.405 45.4576 36.0577C44.6755 37.079 44.0202 38.5062 44.6794 39.6108L45.6234 41.1926C46.1933 42.1476 45.5052 43.3596 44.3931 43.3596ZM43.1983 33.8039C43.1983 33.1648 42.9889 32.6957 42.5701 32.3966C42.1513 32.0906 41.4826 31.9377 40.564 31.9377C39.624 31.9377 38.8619 32.6997 38.8619 33.6398V33.989C38.8619 34.9738 39.6603 35.7722 40.6451 35.7722C42.3472 35.7722 43.1983 35.1161 43.1983 33.8039Z" fill="#EBF2FA"/>
<path d="M22.9612 28.8063C22.9612 32.0619 23.3007 34.5723 23.9797 36.3376C24.6587 38.1028 25.6724 38.9854 27.0207 38.9854C28.2363 38.9854 29.208 37.9292 29.936 35.8167C30.3248 34.6886 31.4853 33.966 32.6331 34.2921C33.676 34.5885 34.3225 35.6466 34.027 36.6898C32.643 41.5771 30.293 44.0207 26.9771 44.0207C24.2513 44.0207 22.1707 42.7329 20.7351 40.1574C19.3091 37.5674 18.5962 33.7837 18.5962 28.8063C18.5962 18.8371 21.351 13.8524 26.8607 13.8524C28.6649 13.8524 30.1732 14.5614 31.3858 15.9794C32.3416 17.0884 33.0987 18.6178 33.6571 20.5675C33.9383 21.5494 33.3655 22.5529 32.4052 22.9005C31.2092 23.3334 29.9482 22.5694 29.4796 21.3869C29.2951 20.9213 29.0866 20.5151 28.854 20.1682C28.2914 19.3145 27.6464 18.8877 26.9189 18.8877C24.2804 18.8877 22.9612 22.1939 22.9612 28.8063Z" fill="#EBF2FA"/>
<path d="M74.5637 18.4324C74.9529 18.5479 75.2276 18.7962 75.387 19.1775C77.5143 19.1991 79.6403 19.2336 81.7649 19.281C82.2517 19.4415 82.568 19.7663 82.7122 20.2546V20.9587C82.514 21.5308 82.1159 21.8623 81.5188 21.9529V30.3328H80.6545V21.9529H79.7493V30.3328H78.885V21.9529H75.469C75.4758 22.1467 75.469 22.3402 75.4485 22.533C75.2041 23.2985 74.9441 24.0581 74.6672 24.8113C74.6301 24.861 74.5816 24.8955 74.5227 24.9148C74.2213 24.9355 73.9195 24.9422 73.6174 24.9353C73.6243 25.2393 73.6175 25.543 73.5969 25.8464C73.4926 26.4346 73.1635 26.8351 72.6096 27.0476C72.5543 27.9283 72.7049 28.7706 73.0618 29.574C73.2932 29.9978 73.6435 30.2679 74.1116 30.3826C74.142 30.3858 74.1729 30.3883 74.2034 30.3914C74.2034 30.3914 72.3888 31.1224 72.5325 30.7175C72.5754 30.3754 72.2317 29.8964 72.1155 29.616C71.8272 28.7717 71.6971 27.9018 71.7249 27.0066C71.3068 26.869 71.0119 26.5921 70.8401 26.1775C70.7475 25.7695 70.7125 25.3555 70.7366 24.9353C70.4346 24.9422 70.1326 24.9355 69.8313 24.9148C69.7726 24.8955 69.7248 24.8608 69.6877 24.8113C69.4109 24.0581 69.1499 23.2985 68.9055 22.533C68.885 22.3402 68.8782 22.1467 68.885 21.9529H65.47V30.3328H64.6057V21.9529H63.7004V30.3328H62.8362V21.9529C62.2389 21.8623 61.8411 21.5309 61.6428 20.9587V20.2546C61.787 19.7664 62.1024 19.4415 62.5891 19.281C64.7138 19.2336 66.8405 19.1991 68.968 19.1775C69.1284 18.7952 69.4023 18.5468 69.7903 18.4324H74.5637ZM71.6008 24.9353C71.5862 25.2558 71.6075 25.5738 71.6633 25.8884C71.7095 25.9762 71.7708 26.0522 71.8479 26.116C72.2006 26.3054 72.4821 26.2296 72.6917 25.8884C72.7474 25.5738 72.7678 25.2558 72.7532 24.9353H71.6008ZM69.9143 22.781C70.0598 23.2203 70.1966 23.6629 70.3254 24.1072H74.0295C74.1499 23.6746 74.2867 23.2464 74.4407 22.823C72.9322 22.7816 71.4233 22.7672 69.9143 22.781ZM72.0012 18.7537C71.8016 18.7537 71.6254 18.7956 71.4729 18.8796C71.324 18.9637 71.2078 19.0792 71.1243 19.2253C71.0444 19.3715 71.0042 19.5358 71.0042 19.7185C71.0042 19.8208 71.0169 19.9194 71.0422 20.0144C71.0713 20.1057 71.1116 20.2044 71.1624 20.3103C71.2204 20.4126 71.2746 20.5043 71.3254 20.5847C71.086 20.7637 70.9049 20.9247 70.7815 21.0671C70.658 21.2097 70.5959 21.3761 70.5959 21.5662C70.596 21.7049 70.6363 21.8343 70.7161 21.9548C70.7959 22.0753 70.9171 22.174 71.0803 22.2507C71.2437 22.3238 71.4474 22.3611 71.6907 22.3611C72.1226 22.3611 72.4763 22.2364 72.7522 21.988C73.0352 22.1925 73.2333 22.2945 73.3459 22.2947H74.1409C74.1518 22.2947 74.1575 22.2856 74.1575 22.2673C74.161 22.2455 74.1554 22.2329 74.1409 22.2292C74.0247 22.2036 73.8702 22.1378 73.678 22.032C73.4893 21.926 73.2806 21.7867 73.052 21.615C73.1754 21.4177 73.2848 21.1548 73.3792 20.8259C73.4081 20.7167 73.4349 20.6381 73.4602 20.5906C73.4856 20.5394 73.5281 20.5022 73.5862 20.4802C73.6443 20.4548 73.7297 20.4421 73.842 20.4421C73.8528 20.442 73.8577 20.4307 73.8577 20.4089C73.8576 20.3873 73.8527 20.3769 73.842 20.3767L72.595 20.3816C72.5841 20.3816 72.5784 20.3929 72.5784 20.4148C72.582 20.4366 72.5877 20.448 72.595 20.448C72.7507 20.4481 72.8594 20.4914 72.9211 20.5789C72.9865 20.6629 73.0198 20.7987 73.0198 20.9851C73.0197 21.1933 72.9899 21.3725 72.9319 21.5222C72.4491 21.1459 72.0736 20.7528 71.8049 20.3435C72.0228 20.1973 72.1862 20.0841 72.2952 20.0037C72.4041 19.9196 72.4985 19.8188 72.5784 19.7019C72.6618 19.5813 72.7034 19.4476 72.7034 19.3015C72.7033 19.1226 72.6377 18.9875 72.5071 18.8962C72.3801 18.8014 72.2116 18.7537 72.0012 18.7537ZM71.386 20.6667C71.5275 20.8567 71.6946 21.0483 71.887 21.2419C72.0793 21.4319 72.2752 21.6075 72.4749 21.7683C72.5293 21.8121 72.5927 21.862 72.6653 21.9167C72.4983 22.0555 72.2932 22.1248 72.05 22.1248C71.8576 22.1248 71.6872 22.0863 71.5383 22.0095C71.3895 21.9328 71.2745 21.8308 71.1946 21.7029C71.1148 21.575 71.0754 21.4379 71.0754 21.2917C71.0754 21.0652 71.179 20.8568 71.386 20.6667ZM62.8772 20.0896C62.7586 20.1467 62.6555 20.2292 62.5686 20.3376C62.4319 20.6499 62.5076 20.8913 62.7952 21.0623C64.8251 21.083 66.855 21.0906 68.885 21.0837V20.0896H62.8772ZM75.469 21.0837C77.4991 21.0906 79.5298 21.083 81.5598 21.0623C81.6465 21.015 81.7223 20.9526 81.7864 20.8757C81.9395 20.5153 81.8358 20.2602 81.4768 20.1101C79.4743 20.0894 77.4715 20.0827 75.469 20.0896V21.0837ZM71.7834 18.8904C71.9104 18.8904 72.0119 18.9368 72.0881 19.0281C72.1679 19.1194 72.2082 19.2453 72.2083 19.406C72.2083 19.5704 72.1679 19.7201 72.0881 19.8552C72.0083 19.9904 71.8954 20.1219 71.7502 20.2498C71.5507 19.9174 71.4514 19.6101 71.4514 19.3289C71.4515 19.0368 71.5621 18.8904 71.7834 18.8904Z" fill="#EBF2FA"/>
</svg>
