<svg width="304" height="155" viewBox="0 0 304 155" fill="none" xmlns="http://www.w3.org/2000/svg">
<path d="M175.733 55.5442C175.733 61.8551 174.26 66.7126 171.315 70.1167C168.37 73.5017 164.172 75.1942 158.722 75.1942C152.052 75.1942 146.645 69.7872 146.645 63.1173V46.8523C146.645 41.133 151.281 36.4966 157.001 36.4966C163.273 36.4966 167.959 38.0743 171.057 41.2298C174.174 44.3661 175.733 49.1376 175.733 55.5442ZM167.213 55.5442C167.213 51.203 166.39 48.038 164.746 46.0491C163.12 44.041 160.491 43.037 156.857 43.037C155.891 43.037 155.107 43.8205 155.107 44.7869V65.7277C155.107 67.3437 156.417 68.6537 158.033 68.6537C164.153 68.6537 167.213 64.2839 167.213 55.5442Z" fill="#1D1D1D"/>
<path d="M141.05 70.0242C141.885 72.5732 139.986 75.1939 137.303 75.1939C135.534 75.1939 133.981 74.0149 133.506 72.3103L132.99 70.4607C132.21 67.6628 129.661 65.7275 126.757 65.7275H123.503C120.599 65.7275 118.05 67.6628 117.27 70.4607L116.757 72.3018C116.28 74.0114 114.723 75.1939 112.948 75.1939C110.257 75.1939 108.352 72.5634 109.192 70.0064L118.657 41.1824C119.576 38.3864 122.186 36.4963 125.128 36.4963C128.073 36.4963 130.684 38.3885 131.601 41.1867L141.05 70.0242ZM125.933 45.2169C125.751 44.477 124.494 44.473 124.301 45.2105C124.291 45.2506 124.28 45.291 124.27 45.3317C123.954 46.5775 123.085 49.7261 121.663 54.7773C121.015 57.0757 122.741 59.3592 125.129 59.3592C127.517 59.3592 129.243 57.0732 128.593 54.7746C127.136 49.6234 126.25 46.4375 125.933 45.2169Z" fill="#1D1D1D"/>
<path d="M238.167 85.7425C234.951 85.7425 232.343 88.3497 232.343 91.5658V113.668C232.343 116.005 230.449 117.9 228.112 117.9C225.775 117.9 223.881 116.005 223.881 113.668V91.5658C223.881 88.3497 221.274 85.7425 218.058 85.7425H214.542C213.268 85.7425 212.235 84.7095 212.235 83.4351C212.235 82.1608 213.268 81.1277 214.542 81.1277H241.683C242.957 81.1277 243.99 82.1608 243.99 83.4351C243.99 84.7095 242.957 85.7425 241.683 85.7425H238.167Z" fill="#1D1D1D"/>
<path d="M193.962 85.7425C190.92 85.7425 188.454 88.2084 188.454 91.2503C188.454 94.2921 190.92 96.758 193.962 96.758H202.998C204.804 96.758 206.268 98.2221 206.268 100.028C206.268 101.834 204.804 103.298 202.998 103.298H195.754C191.722 103.298 188.454 106.567 188.454 110.599V113.668C188.454 116.005 186.559 117.9 184.223 117.9C181.886 117.9 179.991 116.005 179.991 113.668V92.6588C179.991 85.2206 186.021 79.1907 193.46 79.1907H203.652C205.461 79.1907 206.928 80.6574 206.928 82.4666C206.928 84.2758 205.461 85.7425 203.652 85.7425H193.962Z" fill="#1D1D1D"/>
<path d="M173.478 112.73C174.313 115.279 172.414 117.9 169.732 117.9C167.962 117.9 166.41 116.721 165.935 115.016L165.419 113.167C164.639 110.369 162.09 108.433 159.186 108.433H155.932C153.028 108.433 150.479 110.369 149.699 113.167L149.186 115.008C148.709 116.717 147.152 117.9 145.377 117.9C142.686 117.9 140.781 115.269 141.621 112.712L151.086 83.8882C152.004 81.0922 154.614 79.2021 157.557 79.2021C160.502 79.2021 163.113 81.0943 164.03 83.8925L173.478 112.73ZM158.362 87.9227C158.179 87.1828 156.922 87.1788 156.73 87.9163C156.72 87.9564 156.709 87.9968 156.698 88.0375C156.383 89.2833 155.514 92.4319 154.092 97.4831C153.444 99.7815 155.169 102.065 157.557 102.065C159.946 102.065 161.671 99.7791 161.021 97.4804C159.565 92.3292 158.679 89.1434 158.362 87.9227Z" fill="#1D1D1D"/>
<path d="M132.674 117.9C131.212 117.9 129.863 117.111 129.146 115.837L122.887 104.722C122.332 103.736 121.289 103.126 120.158 103.126C118.428 103.126 117.026 104.529 117.026 106.258V113.669C117.026 116.005 115.131 117.9 112.794 117.9C110.458 117.9 108.563 116.005 108.563 113.669V93.3731C108.563 85.5467 114.908 79.2021 122.734 79.2021C127.783 79.2021 131.56 80.187 134.065 82.1568C136.57 84.1266 137.823 86.9665 137.823 90.6766C137.823 93.2966 137.115 95.5245 135.7 97.3605C133.485 100.234 131.639 104.262 133.507 107.372L136.146 111.765C137.767 114.464 135.823 117.9 132.674 117.9ZM129.303 91.0208C129.303 89.2232 128.71 87.9036 127.525 87.0621C126.339 86.2016 124.446 85.7713 121.845 85.7713C119.183 85.7713 117.026 87.9289 117.026 90.5905V91.5085C117.026 94.2968 119.286 96.5572 122.074 96.5572C126.894 96.5572 129.303 94.7118 129.303 91.0208Z" fill="#1D1D1D"/>
<path d="M72.0059 76.963C72.0059 86.1206 72.9671 93.182 74.8896 98.1474C76.8121 103.113 79.6821 105.596 83.4996 105.596C86.938 105.596 89.6875 102.63 91.7481 96.6985C92.8542 93.5147 96.1292 91.4735 99.3729 92.3891C102.333 93.2246 104.169 96.2277 103.323 99.185C99.4028 112.901 92.7537 119.759 83.376 119.759C75.6586 119.759 69.7675 116.137 65.7029 108.892C61.6656 101.607 59.647 90.9639 59.647 76.963C59.647 48.9206 67.4468 34.8994 83.0464 34.8994C88.1547 34.8994 92.4254 36.8937 95.8584 40.8823C98.5574 43.9933 100.697 48.2803 102.276 53.7433C103.081 56.5275 101.454 59.3764 98.7265 60.3571C95.3459 61.5728 91.7885 59.4133 90.4552 56.0774C89.9344 54.7744 89.3461 53.6369 88.6903 52.665C87.0973 50.2637 85.271 49.0631 83.2112 49.0631C75.741 49.0631 72.0059 58.363 72.0059 76.963Z" fill="#1D1D1D"/>
<path d="M218.11 47.7822C219.212 48.1072 219.989 48.806 220.44 49.8789C226.463 49.9397 232.484 50.0376 238.499 50.1709C239.877 50.6225 240.771 51.5348 241.179 52.9082V54.8896C240.618 56.4989 239.491 57.4309 237.8 57.6855V81.2578H235.353V57.6855H232.79V81.2578H230.343V57.6855H220.673C220.693 58.2306 220.673 58.7742 220.615 59.3164C219.923 61.4699 219.185 63.606 218.401 65.7246C218.296 65.8644 218.16 65.9614 217.994 66.0156C217.14 66.0739 216.285 66.0936 215.43 66.0742C215.449 66.9295 215.43 67.7841 215.372 68.6377C215.076 70.2922 214.144 71.4188 212.576 72.0166C212.419 74.4941 212.846 76.863 213.857 79.123C214.512 80.3152 215.503 81.073 216.829 81.3955C216.915 81.4046 217.002 81.4133 217.088 81.4219C217.088 81.4219 211.953 83.4782 212.359 82.3398C212.481 81.3774 211.506 80.0291 211.177 79.2402C210.361 76.8653 209.992 74.4179 210.071 71.8994C208.887 71.5124 208.052 70.7357 207.566 69.5693C207.304 68.4214 207.207 67.2564 207.275 66.0742C206.42 66.0936 205.565 66.0739 204.711 66.0156C204.545 65.9614 204.408 65.8645 204.303 65.7246C203.519 63.606 202.782 61.4698 202.09 59.3164C202.032 58.7742 202.012 58.2306 202.032 57.6855H192.361V81.2578H189.914V57.6855H187.351V81.2578H184.905V57.6855C183.214 57.4309 182.087 56.4989 181.526 54.8896V52.9082C181.934 51.5347 182.827 50.6225 184.206 50.1709C190.221 50.0376 196.241 49.9397 202.264 49.8789C202.718 48.8027 203.496 48.104 204.595 47.7822H218.11ZM209.721 66.0742C209.68 66.9758 209.738 67.869 209.896 68.7539C210.027 69.0014 210.202 69.2148 210.42 69.3945C211.419 69.9277 212.216 69.7143 212.809 68.7539C212.967 67.8691 213.025 66.9757 212.984 66.0742H209.721ZM204.945 60.0156C205.357 61.2513 205.745 62.4944 206.11 63.7441H216.595C216.936 62.5273 217.324 61.3229 217.76 60.1318C213.489 60.0153 209.217 59.9768 204.945 60.0156ZM210.853 48.6865C210.288 48.6866 209.79 48.8047 209.358 49.041C208.936 49.2774 208.607 49.6006 208.371 50.0117C208.144 50.4229 208.032 50.8864 208.032 51.4004C208.032 51.688 208.067 51.9654 208.139 52.2324C208.221 52.4894 208.335 52.7673 208.479 53.0654C208.643 53.353 208.797 53.6099 208.941 53.8359C208.262 54.3396 207.748 54.7925 207.399 55.1934C207.05 55.5942 206.875 56.0623 206.875 56.5967C206.875 56.9872 206.988 57.3523 207.214 57.6914C207.44 58.0305 207.785 58.3076 208.247 58.5234C208.71 58.729 209.285 58.832 209.974 58.832C211.197 58.832 212.2 58.4822 212.981 57.7832C213.782 58.3587 214.343 58.6472 214.662 58.6475H216.914C216.944 58.6473 216.959 58.6214 216.959 58.5703C216.97 58.5088 216.954 58.4723 216.914 58.4619C216.585 58.39 216.148 58.2052 215.603 57.9072C215.068 57.6092 214.477 57.2184 213.83 56.7354C214.179 56.1802 214.487 55.4398 214.754 54.5146C214.837 54.2063 214.914 53.9852 214.986 53.8516C215.058 53.7077 215.176 53.6046 215.34 53.543C215.505 53.471 215.746 53.4356 216.065 53.4355C216.096 53.4355 216.112 53.4045 216.112 53.3428C216.112 53.2811 216.096 53.25 216.065 53.25L212.534 53.2656C212.503 53.2659 212.488 53.297 212.488 53.3584C212.498 53.4196 212.513 53.4508 212.534 53.4512C212.976 53.4512 213.285 53.5737 213.459 53.8203C213.644 54.0567 213.737 54.4376 213.737 54.9619C213.737 55.5478 213.654 56.0512 213.49 56.4727C212.123 55.414 211.059 54.3093 210.298 53.1582C210.915 52.7471 211.378 52.4283 211.686 52.2021C211.994 51.9657 212.262 51.6825 212.488 51.3535C212.724 51.0143 212.842 50.6387 212.842 50.2275C212.842 49.7241 212.657 49.3438 212.288 49.0869C211.928 48.8196 211.449 48.6865 210.853 48.6865ZM209.111 54.0674C209.512 54.6019 209.985 55.1417 210.53 55.6865C211.075 56.221 211.629 56.7147 212.195 57.167C212.349 57.2903 212.529 57.4288 212.735 57.583C212.262 57.9736 211.68 58.1689 210.992 58.1689C210.447 58.1689 209.964 58.0615 209.542 57.8457C209.121 57.6298 208.797 57.3412 208.571 56.9814C208.345 56.6218 208.232 56.2362 208.232 55.8252C208.232 55.1879 208.525 54.6019 209.111 54.0674ZM185.021 52.4424C184.685 52.6031 184.393 52.8363 184.147 53.1416C183.76 54.0199 183.974 54.6998 184.789 55.1807C190.536 55.2389 196.284 55.2587 202.032 55.2393V52.4424H185.021ZM220.673 52.4424V55.2393C226.421 55.2587 232.169 55.2389 237.916 55.1807C238.162 55.0477 238.376 54.8728 238.557 54.6562C238.991 53.6417 238.701 52.9233 237.684 52.501C232.014 52.4427 226.344 52.423 220.673 52.4424ZM210.237 49.0713C210.596 49.0714 210.884 49.2001 211.1 49.457C211.326 49.7139 211.439 50.0684 211.439 50.5205C211.439 50.983 211.326 51.4049 211.1 51.7852C210.874 52.1655 210.555 52.5357 210.144 52.8955C209.579 51.9601 209.296 51.0962 209.296 50.3047C209.296 49.4826 209.61 49.0713 210.237 49.0713Z" fill="#1D1D1D"/>
</svg>
