<svg width="79" height="37" viewBox="0 0 79 37" fill="none" xmlns="http://www.w3.org/2000/svg">
<path d="M49.7483 8.84764C49.7483 11.5522 49.1173 13.6339 47.8551 15.0927C46.593 16.5433 44.7941 17.2686 42.4584 17.2686C39.6 17.2686 37.2828 14.9515 37.2828 12.0931V5.12272C37.2828 2.67173 39.2698 0.684814 41.7208 0.684814C44.4089 0.684814 46.4168 1.36095 47.7445 2.71323C49.0804 4.05731 49.7483 6.10211 49.7483 8.84764ZM46.0972 8.84764C46.0972 6.98723 45.7448 5.63086 45.04 4.77852C44.3433 3.91798 43.2164 3.48771 41.6593 3.48771C41.2451 3.48771 40.9094 3.82345 40.9094 4.23761V13.2118C40.9094 13.9043 41.4708 14.4657 42.1633 14.4657C44.7859 14.4657 46.0972 12.593 46.0972 8.84764Z" fill="#1D1D1D"/>
<path d="M34.8849 15.0531C35.2428 16.1455 34.429 17.2686 33.2794 17.2686C32.5211 17.2686 31.8557 16.7633 31.6521 16.0329L31.4311 15.2402C31.0968 14.0412 30.0046 13.2118 28.7598 13.2118H27.3656C26.1208 13.2118 25.0286 14.0412 24.6943 15.2402L24.4743 16.0292C24.2701 16.7618 23.6027 17.2686 22.8421 17.2686C21.6888 17.2686 20.8724 16.1413 21.2323 15.0455L25.2887 2.69302C25.6822 1.4948 26.8008 0.684814 28.0619 0.684814C29.3238 0.684814 30.4428 1.49571 30.8357 2.69488L34.8849 15.0531ZM28.4069 4.42201C28.3286 4.10492 27.7899 4.10321 27.7075 4.41924C27.703 4.43645 27.6984 4.45376 27.6939 4.47118C27.5588 5.00509 27.1864 6.35441 26.5767 8.51912C26.2993 9.50408 27.0387 10.4827 28.062 10.4827C29.0857 10.4827 29.8251 9.50303 29.5465 8.51793C28.9224 6.31042 28.5425 4.94511 28.4069 4.42201Z" fill="#1D1D1D"/>
<path d="M76.5044 21.789C75.1262 21.789 74.0089 22.9063 74.0089 24.2845V33.7566C74.0089 34.7581 73.197 35.5699 72.1956 35.5699C71.1942 35.5699 70.3823 34.7581 70.3823 33.7566V24.2845C70.3823 22.9063 69.265 21.789 67.8868 21.789H66.38C65.8339 21.789 65.3912 21.3463 65.3912 20.8002C65.3912 20.254 65.8339 19.8113 66.38 19.8113H78.0111C78.5573 19.8113 79 20.254 79 20.8002C79 21.3463 78.5573 21.789 78.0111 21.789H76.5044Z" fill="#1D1D1D"/>
<path d="M57.5603 21.789C56.2568 21.789 55.2 22.8457 55.2 24.1493C55.2 25.4529 56.2568 26.5097 57.5603 26.5097H61.4327C62.2067 26.5097 62.8342 27.1371 62.8342 27.9111C62.8342 28.6851 62.2067 29.3126 61.4327 29.3126H58.3287C56.6008 29.3126 55.2 30.7133 55.2 32.4412V33.7566C55.2 34.7581 54.3882 35.5699 53.3867 35.5699C52.3853 35.5699 51.5734 34.7581 51.5734 33.7566V24.7529C51.5734 21.5653 54.1575 18.9812 57.3452 18.9812H61.713C62.4884 18.9812 63.1169 19.6097 63.1169 20.3851C63.1169 21.1604 62.4884 21.789 61.713 21.789H57.5603Z" fill="#1D1D1D"/>
<path d="M48.7822 33.354C49.1401 34.4464 48.3262 35.5695 47.1767 35.5695C46.4184 35.5695 45.753 35.0642 45.5493 34.3338L45.3283 33.5411C44.9941 32.3421 43.9018 31.5127 42.6571 31.5127H41.2628C40.0181 31.5127 38.9258 32.3421 38.5916 33.5411L38.3716 34.3301C38.1674 35.0627 37.5 35.5695 36.7394 35.5695C35.5861 35.5695 34.7697 34.4422 35.1296 33.3464L39.186 20.9939C39.5795 19.7957 40.698 18.9857 41.9592 18.9857C43.2211 18.9857 44.3401 19.7966 44.733 20.9958L48.7822 33.354ZM42.3042 22.7229C42.2259 22.4058 41.6872 22.4041 41.6047 22.7201C41.6003 22.7373 41.5957 22.7547 41.5912 22.7721C41.4561 23.306 41.0837 24.6553 40.474 26.82C40.1966 27.805 40.936 28.7836 41.9592 28.7836C42.983 28.7836 43.7224 27.8039 43.4438 26.8188C42.8197 24.6113 42.4398 23.246 42.3042 22.7229Z" fill="#1D1D1D"/>
<path d="M31.2958 35.5695C30.6691 35.5695 30.0911 35.2317 29.7836 34.6856L27.1012 29.922C26.8634 29.4997 26.4164 29.2384 25.9317 29.2384C25.1904 29.2384 24.5895 29.8393 24.5895 30.5806V33.7562C24.5895 34.7577 23.7777 35.5695 22.7762 35.5695C21.7748 35.5695 20.9629 34.7577 20.9629 33.7562V25.0586C20.9629 21.7047 23.6819 18.9857 27.0359 18.9857C29.1995 18.9857 30.8181 19.4078 31.8918 20.2519C32.9654 21.0961 33.5022 22.3131 33.5022 23.9031C33.5022 25.0259 33.199 25.9807 32.5925 26.7674C31.6433 27.9988 30.852 29.725 31.6526 31.0578L32.7835 32.9404C33.4783 34.0971 32.6451 35.5695 31.2958 35.5695ZM29.8511 24.0506C29.8511 23.2802 29.597 22.7147 29.0889 22.3541C28.5807 21.9853 27.7694 21.8009 26.6548 21.8009C25.5142 21.8009 24.5895 22.7256 24.5895 23.8662V24.2596C24.5895 25.4545 25.5582 26.4232 26.7531 26.4232C28.8184 26.4232 29.8511 25.6324 29.8511 24.0506Z" fill="#1D1D1D"/>
<path d="M5.29636 18.0263C5.29636 21.9508 5.7083 24.977 6.53217 27.1049C7.35605 29.2328 8.58598 30.2968 10.222 30.2968C11.6955 30.2968 12.8738 29.0258 13.7569 26.4839C14.2309 25.1195 15.6344 24.2448 17.0245 24.6371C18.293 24.9952 19.0797 26.2822 18.7174 27.5495C17.0373 33.4276 14.1878 36.3666 10.169 36.3666C6.86173 36.3666 4.33713 34.8143 2.59522 31.7096C0.865072 28.5875 0 24.0264 0 18.0263C0 6.00877 3.34259 0 10.0278 0C12.2169 0 14.0471 0.854658 15.5183 2.56398C16.675 3.89716 17.5918 5.73435 18.2687 8.07554C18.6137 9.2687 17.9162 10.4896 16.7474 10.9099C15.2987 11.4308 13.7742 10.5054 13.2028 9.07579C12.9796 8.51739 12.7275 8.02993 12.4464 7.61344C11.7638 6.58436 10.9811 6.06982 10.0984 6.06982C6.89703 6.06982 5.29636 10.0553 5.29636 18.0263Z" fill="#1D1D1D"/>
</svg>
